<svg width="1440" height="836" viewBox="0 0 1440 836" fill="none" xmlns="http://www.w3.org/2000/svg">
<g opacity="0.7">
<circle cx="29.4263" cy="2.42657" r="1.95074" fill="#1C1C1C"/>
<circle cx="84.1644" cy="2.42657" r="1.95074" fill="#1C1C1C"/>
<circle cx="138.902" cy="2.42657" r="1.95074" fill="#1C1C1C"/>
<circle cx="193.64" cy="2.42657" r="1.95074" fill="#1C1C1C"/>
<circle cx="248.378" cy="2.42657" r="1.95074" fill="#1C1C1C"/>
<circle cx="303.116" cy="2.42657" r="1.95074" fill="#1C1C1C"/>
<circle cx="357.854" cy="2.42657" r="1.95074" fill="#1C1C1C"/>
<circle cx="412.592" cy="2.42657" r="1.95074" fill="#1C1C1C"/>
<circle cx="467.33" cy="2.42657" r="1.95074" fill="#1C1C1C"/>
<circle cx="522.067" cy="2.42657" r="1.95074" fill="#1C1C1C"/>
<circle cx="576.805" cy="2.42657" r="1.95074" fill="#1C1C1C"/>
<circle cx="631.544" cy="2.42657" r="1.95074" fill="#1C1C1C"/>
<circle cx="686.281" cy="2.42657" r="1.95074" fill="#1C1C1C"/>
<circle cx="741.019" cy="2.42657" r="1.95074" fill="#1C1C1C"/>
<circle cx="795.757" cy="2.42657" r="1.95074" fill="#1C1C1C"/>
<circle cx="850.495" cy="2.42657" r="1.95074" fill="#1C1C1C"/>
<circle cx="905.233" cy="2.42657" r="1.95074" fill="#1C1C1C"/>
<circle cx="959.971" cy="2.42657" r="1.95074" fill="#1C1C1C"/>
<circle cx="1014.71" cy="2.42657" r="1.95074" fill="#1C1C1C"/>
<circle cx="1069.45" cy="2.42657" r="1.95074" fill="#1C1C1C"/>
<circle cx="1124.18" cy="2.42657" r="1.95074" fill="#1C1C1C"/>
<circle cx="1178.92" cy="2.42657" r="1.95074" fill="#1C1C1C"/>
<circle cx="1233.66" cy="2.42657" r="1.95074" fill="#1C1C1C"/>
<circle cx="1288.4" cy="2.42657" r="1.95074" fill="#1C1C1C"/>
<circle cx="1343.14" cy="2.42657" r="1.95074" fill="#1C1C1C"/>
<circle cx="1397.87" cy="2.42657" r="1.95074" fill="#1C1C1C"/>
<circle cx="29.4263" cy="57.1644" r="1.95074" fill="#1C1C1C"/>
<circle cx="84.1644" cy="57.1644" r="1.95074" fill="#1C1C1C"/>
<circle cx="138.902" cy="57.1644" r="1.95074" fill="#1C1C1C"/>
<circle cx="193.64" cy="57.1644" r="1.95074" fill="#1C1C1C"/>
<circle cx="248.378" cy="57.1644" r="1.95074" fill="#1C1C1C"/>
<circle cx="303.116" cy="57.1644" r="1.95074" fill="#1C1C1C"/>
<circle cx="357.854" cy="57.1644" r="1.95074" fill="#1C1C1C"/>
<circle cx="412.592" cy="57.1644" r="1.95074" fill="#1C1C1C"/>
<circle cx="467.33" cy="57.1644" r="1.95074" fill="#1C1C1C"/>
<circle cx="522.067" cy="57.1644" r="1.95074" fill="#1C1C1C"/>
<circle cx="576.805" cy="57.1644" r="1.95074" fill="#1C1C1C"/>
<circle cx="631.544" cy="57.1644" r="1.95074" fill="#1C1C1C"/>
<circle cx="686.281" cy="57.1644" r="1.95074" fill="#1C1C1C"/>
<circle cx="741.019" cy="57.1644" r="1.95074" fill="#1C1C1C"/>
<circle cx="795.757" cy="57.1644" r="1.95074" fill="#1C1C1C"/>
<circle cx="850.495" cy="57.1644" r="1.95074" fill="#1C1C1C"/>
<circle cx="905.233" cy="57.1644" r="1.95074" fill="#1C1C1C"/>
<circle cx="959.971" cy="57.1644" r="1.95074" fill="#1C1C1C"/>
<circle cx="1014.71" cy="57.1644" r="1.95074" fill="#1C1C1C"/>
<circle cx="1069.45" cy="57.1644" r="1.95074" fill="#1C1C1C"/>
<circle cx="1124.18" cy="57.1644" r="1.95074" fill="#1C1C1C"/>
<circle cx="1178.92" cy="57.1644" r="1.95074" fill="#1C1C1C"/>
<circle cx="1233.66" cy="57.1644" r="1.95074" fill="#1C1C1C"/>
<circle cx="1288.4" cy="57.1644" r="1.95074" fill="#1C1C1C"/>
<circle cx="1343.14" cy="57.1644" r="1.95074" fill="#1C1C1C"/>
<circle cx="1397.87" cy="57.1644" r="1.95074" fill="#1C1C1C"/>
<circle cx="29.4263" cy="111.902" r="1.95074" fill="#1C1C1C"/>
<circle cx="84.1644" cy="111.902" r="1.95074" fill="#1C1C1C"/>
<circle cx="138.902" cy="111.902" r="1.95074" fill="#1C1C1C"/>
<circle cx="193.64" cy="111.902" r="1.95074" fill="#1C1C1C"/>
<circle cx="248.378" cy="111.902" r="1.95074" fill="#1C1C1C"/>
<circle cx="303.116" cy="111.902" r="1.95074" fill="#1C1C1C"/>
<circle cx="357.854" cy="111.902" r="1.95074" fill="#1C1C1C"/>
<circle cx="412.592" cy="111.902" r="1.95074" fill="#1C1C1C"/>
<circle cx="467.33" cy="111.902" r="1.95074" fill="#1C1C1C"/>
<circle cx="522.067" cy="111.902" r="1.95074" fill="#1C1C1C"/>
<circle cx="576.805" cy="111.902" r="1.95074" fill="#1C1C1C"/>
<circle cx="631.544" cy="111.902" r="1.95074" fill="#1C1C1C"/>
<circle cx="686.281" cy="111.902" r="1.95074" fill="#1C1C1C"/>
<circle cx="741.019" cy="111.902" r="1.95074" fill="#1C1C1C"/>
<circle cx="795.757" cy="111.902" r="1.95074" fill="#1C1C1C"/>
<circle cx="850.495" cy="111.902" r="1.95074" fill="#1C1C1C"/>
<circle cx="905.233" cy="111.902" r="1.95074" fill="#1C1C1C"/>
<circle cx="959.971" cy="111.902" r="1.95074" fill="#1C1C1C"/>
<circle cx="1014.71" cy="111.902" r="1.95074" fill="#1C1C1C"/>
<circle cx="1069.45" cy="111.902" r="1.95074" fill="#1C1C1C"/>
<circle cx="1124.18" cy="111.902" r="1.95074" fill="#1C1C1C"/>
<circle cx="1178.92" cy="111.902" r="1.95074" fill="#1C1C1C"/>
<circle cx="1233.66" cy="111.902" r="1.95074" fill="#1C1C1C"/>
<circle cx="1288.4" cy="111.902" r="1.95074" fill="#1C1C1C"/>
<circle cx="1343.14" cy="111.902" r="1.95074" fill="#1C1C1C"/>
<circle cx="1397.87" cy="111.902" r="1.95074" fill="#1C1C1C"/>
<circle cx="29.4263" cy="166.64" r="1.95074" fill="#1C1C1C"/>
<circle cx="84.1644" cy="166.64" r="1.95074" fill="#1C1C1C"/>
<circle cx="138.902" cy="166.64" r="1.95074" fill="#1C1C1C"/>
<circle cx="193.64" cy="166.64" r="1.95074" fill="#1C1C1C"/>
<circle cx="248.378" cy="166.64" r="1.95074" fill="#1C1C1C"/>
<circle cx="303.116" cy="166.64" r="1.95074" fill="#1C1C1C"/>
<circle cx="357.854" cy="166.64" r="1.95074" fill="#1C1C1C"/>
<circle cx="412.592" cy="166.64" r="1.95074" fill="#1C1C1C"/>
<circle cx="467.33" cy="166.64" r="1.95074" fill="#1C1C1C"/>
<circle cx="522.067" cy="166.64" r="1.95074" fill="#1C1C1C"/>
<circle cx="576.805" cy="166.64" r="1.95074" fill="#1C1C1C"/>
<circle cx="631.544" cy="166.64" r="1.95074" fill="#1C1C1C"/>
<circle cx="686.281" cy="166.64" r="1.95074" fill="#1C1C1C"/>
<circle cx="741.019" cy="166.64" r="1.95074" fill="#1C1C1C"/>
<circle cx="795.757" cy="166.64" r="1.95074" fill="#1C1C1C"/>
<circle cx="850.495" cy="166.64" r="1.95074" fill="#1C1C1C"/>
<circle cx="905.233" cy="166.64" r="1.95074" fill="#1C1C1C"/>
<circle cx="959.971" cy="166.64" r="1.95074" fill="#1C1C1C"/>
<circle cx="1014.71" cy="166.64" r="1.95074" fill="#1C1C1C"/>
<circle cx="1069.45" cy="166.64" r="1.95074" fill="#1C1C1C"/>
<circle cx="1124.18" cy="166.64" r="1.95074" fill="#1C1C1C"/>
<circle cx="1178.92" cy="166.64" r="1.95074" fill="#1C1C1C"/>
<circle cx="1233.66" cy="166.64" r="1.95074" fill="#1C1C1C"/>
<circle cx="1288.4" cy="166.64" r="1.95074" fill="#1C1C1C"/>
<circle cx="1343.14" cy="166.64" r="1.95074" fill="#1C1C1C"/>
<circle cx="1397.87" cy="166.64" r="1.95074" fill="#1C1C1C"/>
<circle cx="29.4263" cy="221.378" r="1.95074" fill="#1C1C1C"/>
<circle cx="84.1644" cy="221.378" r="1.95074" fill="#737373" fill-opacity="0.5"/>
<circle cx="138.902" cy="221.378" r="1.95074" fill="#1C1C1C"/>
<circle cx="193.64" cy="221.378" r="1.95074" fill="#1C1C1C"/>
<circle cx="248.378" cy="221.378" r="1.95074" fill="#1C1C1C"/>
<circle cx="303.116" cy="221.378" r="1.95074" fill="#1C1C1C"/>
<circle cx="357.854" cy="221.378" r="1.95074" fill="#1C1C1C"/>
<circle cx="412.592" cy="221.378" r="1.95074" fill="#1C1C1C"/>
<circle cx="467.33" cy="221.378" r="1.95074" fill="#1C1C1C"/>
<circle cx="522.067" cy="221.378" r="1.95074" fill="#1C1C1C"/>
<circle cx="576.805" cy="221.378" r="1.95074" fill="#1C1C1C"/>
<circle cx="631.544" cy="221.378" r="1.95074" fill="#1C1C1C"/>
<circle cx="686.281" cy="221.378" r="1.95074" fill="#1C1C1C"/>
<circle cx="741.019" cy="221.378" r="1.95074" fill="#1C1C1C"/>
<circle cx="795.757" cy="221.378" r="1.95074" fill="#1C1C1C"/>
<circle cx="850.495" cy="221.378" r="1.95074" fill="#737373" fill-opacity="0.5"/>
<circle cx="905.233" cy="221.378" r="1.95074" fill="#1C1C1C"/>
<circle cx="959.971" cy="221.378" r="1.95074" fill="#1C1C1C"/>
<circle cx="1014.71" cy="221.378" r="1.95074" fill="#1C1C1C"/>
<circle cx="1069.45" cy="221.378" r="1.95074" fill="#1C1C1C"/>
<circle cx="1124.18" cy="221.378" r="1.95074" fill="#1C1C1C"/>
<circle cx="1178.92" cy="221.378" r="1.95074" fill="#1C1C1C"/>
<circle cx="1233.66" cy="221.378" r="1.95074" fill="#1C1C1C"/>
<circle cx="1288.4" cy="221.378" r="1.95074" fill="#1C1C1C"/>
<circle cx="1343.14" cy="221.378" r="1.95074" fill="#1C1C1C"/>
<circle cx="1397.87" cy="221.378" r="1.95074" fill="#1C1C1C"/>
<circle cx="29.4263" cy="276.116" r="1.95074" fill="#1C1C1C"/>
<circle cx="84.1644" cy="276.116" r="1.95074" fill="#1C1C1C"/>
<circle cx="138.902" cy="276.116" r="1.95074" fill="#1C1C1C"/>
<circle cx="193.64" cy="276.116" r="1.95074" fill="#1C1C1C"/>
<circle cx="248.378" cy="276.116" r="1.95074" fill="#1C1C1C"/>
<circle cx="303.116" cy="276.116" r="1.95074" fill="#1C1C1C"/>
<circle cx="357.854" cy="276.116" r="1.95074" fill="#1C1C1C"/>
<circle cx="412.592" cy="276.116" r="1.95074" fill="#1C1C1C"/>
<circle cx="467.33" cy="276.116" r="1.95074" fill="#1C1C1C"/>
<circle cx="522.067" cy="276.116" r="1.95074" fill="#1C1C1C"/>
<circle cx="576.805" cy="276.116" r="1.95074" fill="#1C1C1C"/>
<circle cx="631.544" cy="276.116" r="1.95074" fill="#1C1C1C"/>
<circle cx="686.281" cy="276.116" r="1.95074" fill="#1C1C1C"/>
<circle cx="741.019" cy="276.116" r="1.95074" fill="#1C1C1C"/>
<circle cx="795.757" cy="276.116" r="1.95074" fill="#1C1C1C"/>
<circle cx="850.495" cy="276.116" r="1.95074" fill="#1C1C1C"/>
<circle cx="905.233" cy="276.116" r="1.95074" fill="#1C1C1C"/>
<circle cx="959.971" cy="276.116" r="1.95074" fill="#1C1C1C"/>
<circle cx="1014.71" cy="276.116" r="1.95074" fill="#1C1C1C"/>
<circle cx="1069.45" cy="276.116" r="1.95074" fill="#1C1C1C"/>
<circle cx="1124.18" cy="276.116" r="1.95074" fill="#1C1C1C"/>
<circle cx="1178.92" cy="276.116" r="1.95074" fill="#1C1C1C"/>
<circle cx="1233.66" cy="276.116" r="1.95074" fill="#1C1C1C"/>
<circle cx="1288.4" cy="276.116" r="1.95074" fill="#1C1C1C"/>
<circle cx="1343.14" cy="276.116" r="1.95074" fill="#1C1C1C"/>
<circle cx="1397.87" cy="276.116" r="1.95074" fill="#1C1C1C"/>
<circle cx="29.4263" cy="330.854" r="1.95074" fill="#1C1C1C"/>
<circle cx="84.1644" cy="330.854" r="1.95074" fill="#1C1C1C"/>
<circle cx="138.902" cy="330.854" r="1.95074" fill="#1C1C1C"/>
<circle cx="193.64" cy="330.854" r="1.95074" fill="#1C1C1C"/>
<circle cx="248.378" cy="330.854" r="1.95074" fill="#1C1C1C"/>
<circle cx="303.116" cy="330.854" r="1.95074" fill="#1C1C1C"/>
<circle cx="357.854" cy="330.854" r="1.95074" fill="#1C1C1C"/>
<circle cx="412.592" cy="330.854" r="1.95074" fill="#1C1C1C"/>
<circle cx="467.33" cy="330.854" r="1.95074" fill="#737373" fill-opacity="0.5"/>
<circle cx="522.067" cy="330.854" r="1.95074" fill="#1C1C1C"/>
<circle cx="576.805" cy="330.854" r="1.95074" fill="#1C1C1C"/>
<circle cx="631.544" cy="330.854" r="1.95074" fill="#1C1C1C"/>
<circle cx="686.281" cy="330.854" r="1.95074" fill="#1C1C1C"/>
<circle cx="741.019" cy="330.854" r="1.95074" fill="#1C1C1C"/>
<circle cx="795.757" cy="330.854" r="1.95074" fill="#1C1C1C"/>
<circle cx="850.495" cy="330.854" r="1.95074" fill="#1C1C1C"/>
<circle cx="905.233" cy="330.854" r="1.95074" fill="#1C1C1C"/>
<circle cx="959.971" cy="330.854" r="1.95074" fill="#1C1C1C"/>
<circle cx="1014.71" cy="330.854" r="1.95074" fill="#1C1C1C"/>
<circle cx="1069.45" cy="330.854" r="1.95074" fill="#1C1C1C"/>
<circle cx="1124.18" cy="330.854" r="1.95074" fill="#1C1C1C"/>
<circle cx="1178.92" cy="330.854" r="1.95074" fill="#1C1C1C"/>
<circle cx="1233.66" cy="330.854" r="1.95074" fill="#1C1C1C"/>
<circle cx="1288.4" cy="330.854" r="1.95074" fill="#737373" fill-opacity="0.5"/>
<circle cx="1343.14" cy="330.854" r="1.95074" fill="#1C1C1C"/>
<circle cx="1397.87" cy="330.854" r="1.95074" fill="#1C1C1C"/>
<circle cx="29.4263" cy="385.592" r="1.95074" fill="#1C1C1C"/>
<circle cx="84.1644" cy="385.592" r="1.95074" fill="#1C1C1C"/>
<circle cx="138.902" cy="385.592" r="1.95074" fill="#1C1C1C"/>
<circle cx="193.64" cy="385.592" r="1.95074" fill="#1C1C1C"/>
<circle cx="248.378" cy="385.592" r="1.95074" fill="#1C1C1C"/>
<circle cx="303.116" cy="385.592" r="1.95074" fill="#1C1C1C"/>
<circle cx="357.854" cy="385.592" r="1.95074" fill="#1C1C1C"/>
<circle cx="412.592" cy="385.592" r="1.95074" fill="#1C1C1C"/>
<circle cx="467.33" cy="385.592" r="1.95074" fill="#1C1C1C"/>
<circle cx="522.067" cy="385.592" r="1.95074" fill="#1C1C1C"/>
<circle cx="576.805" cy="385.592" r="1.95074" fill="#1C1C1C"/>
<circle cx="631.544" cy="385.592" r="1.95074" fill="#1C1C1C"/>
<circle cx="686.281" cy="385.592" r="1.95074" fill="#1C1C1C"/>
<circle cx="741.019" cy="385.592" r="1.95074" fill="#1C1C1C"/>
<circle cx="795.757" cy="385.592" r="1.95074" fill="#1C1C1C"/>
<circle cx="850.495" cy="385.592" r="1.95074" fill="#1C1C1C"/>
<circle cx="905.233" cy="385.592" r="1.95074" fill="#1C1C1C"/>
<circle cx="959.971" cy="385.592" r="1.95074" fill="#1C1C1C"/>
<circle cx="1014.71" cy="385.592" r="1.95074" fill="#1C1C1C"/>
<circle cx="1069.45" cy="385.592" r="1.95074" fill="#1C1C1C"/>
<circle cx="1124.18" cy="385.592" r="1.95074" fill="#1C1C1C"/>
<circle cx="1178.92" cy="385.592" r="1.95074" fill="#1C1C1C"/>
<circle cx="1233.66" cy="385.592" r="1.95074" fill="#1C1C1C"/>
<circle cx="1288.4" cy="385.592" r="1.95074" fill="#1C1C1C"/>
<circle cx="1343.14" cy="385.592" r="1.95074" fill="#1C1C1C"/>
<circle cx="1397.87" cy="385.592" r="1.95074" fill="#1C1C1C"/>
<circle cx="29.4263" cy="440.33" r="1.95074" fill="#1C1C1C"/>
<circle cx="84.1644" cy="440.33" r="1.95074" fill="#1C1C1C"/>
<circle cx="138.902" cy="440.33" r="1.95074" fill="#1C1C1C"/>
<circle cx="193.64" cy="440.33" r="1.95074" fill="#1C1C1C"/>
<circle cx="248.378" cy="440.33" r="1.95074" fill="#1C1C1C"/>
<circle cx="303.116" cy="440.33" r="1.95074" fill="#1C1C1C"/>
<circle cx="357.854" cy="440.33" r="1.95074" fill="#1C1C1C"/>
<circle cx="412.592" cy="440.33" r="1.95074" fill="#1C1C1C"/>
<circle cx="467.33" cy="440.33" r="1.95074" fill="#1C1C1C"/>
<circle cx="522.067" cy="440.33" r="1.95074" fill="#1C1C1C"/>
<circle cx="576.805" cy="440.33" r="1.95074" fill="#1C1C1C"/>
<circle cx="631.544" cy="440.33" r="1.95074" fill="#1C1C1C"/>
<circle cx="686.281" cy="440.33" r="1.95074" fill="#1C1C1C"/>
<circle cx="741.019" cy="440.33" r="1.95074" fill="#1C1C1C"/>
<circle cx="795.757" cy="440.33" r="1.95074" fill="#1C1C1C"/>
<circle cx="850.495" cy="440.33" r="1.95074" fill="#1C1C1C"/>
<circle cx="905.233" cy="440.33" r="1.95074" fill="#1C1C1C"/>
<circle cx="959.971" cy="440.33" r="1.95074" fill="#1C1C1C"/>
<circle cx="1014.71" cy="440.33" r="1.95074" fill="#1C1C1C"/>
<circle cx="1069.45" cy="440.33" r="1.95074" fill="#1C1C1C"/>
<circle cx="1124.18" cy="440.33" r="1.95074" fill="#1C1C1C"/>
<circle cx="1178.92" cy="440.33" r="1.95074" fill="#1C1C1C"/>
<circle cx="1233.66" cy="440.33" r="1.95074" fill="#1C1C1C"/>
<circle cx="1288.4" cy="440.33" r="1.95074" fill="#1C1C1C"/>
<circle cx="1343.14" cy="440.33" r="1.95074" fill="#1C1C1C"/>
<circle cx="1397.87" cy="440.33" r="1.95074" fill="#1C1C1C"/>
<circle cx="29.4263" cy="495.067" r="1.95074" fill="#1C1C1C"/>
<circle cx="84.1644" cy="495.067" r="1.95074" fill="#1C1C1C"/>
<circle cx="138.902" cy="495.068" r="1.95074" fill="#1C1C1C"/>
<circle cx="193.64" cy="495.067" r="1.95074" fill="#1C1C1C"/>
<circle cx="248.378" cy="495.067" r="1.95074" fill="#1C1C1C"/>
<circle cx="303.116" cy="495.067" r="1.95074" fill="#1C1C1C"/>
<circle cx="357.854" cy="495.068" r="1.95074" fill="#1C1C1C"/>
<circle cx="412.592" cy="495.067" r="1.95074" fill="#1C1C1C"/>
<circle cx="467.33" cy="495.067" r="1.95074" fill="#1C1C1C"/>
<circle cx="522.067" cy="495.067" r="1.95074" fill="#1C1C1C"/>
<circle cx="576.805" cy="495.068" r="1.95074" fill="#1C1C1C"/>
<circle cx="631.544" cy="495.067" r="1.95074" fill="#1C1C1C"/>
<circle cx="686.281" cy="495.067" r="1.95074" fill="#1C1C1C"/>
<circle cx="741.019" cy="495.067" r="1.95074" fill="#1C1C1C"/>
<circle cx="795.757" cy="495.068" r="1.95074" fill="#1C1C1C"/>
<circle cx="850.495" cy="495.067" r="1.95074" fill="#1C1C1C"/>
<circle cx="905.233" cy="495.067" r="1.95074" fill="#1C1C1C"/>
<circle cx="959.971" cy="495.068" r="1.95074" fill="#1C1C1C"/>
<circle cx="1014.71" cy="495.068" r="1.95074" fill="#1C1C1C"/>
<circle cx="1069.45" cy="495.068" r="1.95074" fill="#1C1C1C"/>
<circle cx="1124.18" cy="495.067" r="1.95074" fill="#1C1C1C"/>
<circle cx="1178.92" cy="495.068" r="1.95074" fill="#1C1C1C"/>
<circle cx="1233.66" cy="495.068" r="1.95074" fill="#1C1C1C"/>
<circle cx="1288.4" cy="495.067" r="1.95074" fill="#1C1C1C"/>
<circle cx="1343.14" cy="495.067" r="1.95074" fill="#1C1C1C"/>
<circle cx="1397.87" cy="495.068" r="1.95074" fill="#1C1C1C"/>
<circle cx="29.4263" cy="549.805" r="1.95074" fill="#1C1C1C"/>
<circle cx="84.1644" cy="549.805" r="1.95074" fill="#737373" fill-opacity="0.5"/>
<circle cx="138.902" cy="549.805" r="1.95074" fill="#1C1C1C"/>
<circle cx="193.64" cy="549.805" r="1.95074" fill="#1C1C1C"/>
<circle cx="248.378" cy="549.805" r="1.95074" fill="#1C1C1C"/>
<circle cx="303.116" cy="549.805" r="1.95074" fill="#1C1C1C"/>
<circle cx="357.854" cy="549.805" r="1.95074" fill="#1C1C1C"/>
<circle cx="412.592" cy="549.805" r="1.95074" fill="#1C1C1C"/>
<circle cx="467.33" cy="549.805" r="1.95074" fill="#1C1C1C"/>
<circle cx="522.067" cy="549.805" r="1.95074" fill="#1C1C1C"/>
<circle cx="576.805" cy="549.805" r="1.95074" fill="#1C1C1C"/>
<circle cx="631.544" cy="549.805" r="1.95074" fill="#1C1C1C"/>
<circle cx="686.281" cy="549.805" r="1.95074" fill="#1C1C1C"/>
<circle cx="741.019" cy="549.805" r="1.95074" fill="#1C1C1C"/>
<circle cx="795.757" cy="549.805" r="1.95074" fill="#1C1C1C"/>
<circle cx="850.495" cy="549.805" r="1.95074" fill="#737373" fill-opacity="0.5"/>
<circle cx="905.233" cy="549.805" r="1.95074" fill="#1C1C1C"/>
<circle cx="959.971" cy="549.805" r="1.95074" fill="#1C1C1C"/>
<circle cx="1014.71" cy="549.805" r="1.95074" fill="#1C1C1C"/>
<circle cx="1069.45" cy="549.805" r="1.95074" fill="#1C1C1C"/>
<circle cx="1124.18" cy="549.805" r="1.95074" fill="#1C1C1C"/>
<circle cx="1178.92" cy="549.805" r="1.95074" fill="#1C1C1C"/>
<circle cx="1233.66" cy="549.805" r="1.95074" fill="#1C1C1C"/>
<circle cx="1288.4" cy="549.805" r="1.95074" fill="#737373" fill-opacity="0.5"/>
<circle cx="1343.14" cy="549.805" r="1.95074" fill="#1C1C1C"/>
<circle cx="1397.87" cy="549.805" r="1.95074" fill="#1C1C1C"/>
<circle cx="29.4263" cy="604.543" r="1.95074" fill="#1C1C1C"/>
<circle cx="84.1644" cy="604.543" r="1.95074" fill="#1C1C1C"/>
<circle cx="138.902" cy="604.544" r="1.95074" fill="#1C1C1C"/>
<circle cx="193.64" cy="604.543" r="1.95074" fill="#1C1C1C"/>
<circle cx="248.378" cy="604.543" r="1.95074" fill="#1C1C1C"/>
<circle cx="303.116" cy="604.543" r="1.95074" fill="#1C1C1C"/>
<circle cx="357.854" cy="604.544" r="1.95074" fill="#1C1C1C"/>
<circle cx="412.592" cy="604.543" r="1.95074" fill="#737373" fill-opacity="0.5"/>
<circle cx="467.33" cy="604.543" r="1.95074" fill="#1C1C1C"/>
<circle cx="522.067" cy="604.543" r="1.95074" fill="#1C1C1C"/>
<circle cx="576.805" cy="604.544" r="1.95074" fill="#1C1C1C"/>
<circle cx="631.544" cy="604.543" r="1.95074" fill="#1C1C1C"/>
<circle cx="686.281" cy="604.543" r="1.95074" fill="#1C1C1C"/>
<circle cx="741.019" cy="604.543" r="1.95074" fill="#1C1C1C"/>
<circle cx="795.757" cy="604.544" r="1.95074" fill="#1C1C1C"/>
<circle cx="850.495" cy="604.543" r="1.95074" fill="#1C1C1C"/>
<circle cx="905.233" cy="604.543" r="1.95074" fill="#1C1C1C"/>
<circle cx="959.971" cy="604.544" r="1.95074" fill="#1C1C1C"/>
<circle cx="1014.71" cy="604.544" r="1.95074" fill="#1C1C1C"/>
<circle cx="1069.45" cy="604.544" r="1.95074" fill="#1C1C1C"/>
<circle cx="1124.18" cy="604.543" r="1.95074" fill="#1C1C1C"/>
<circle cx="1178.92" cy="604.544" r="1.95074" fill="#1C1C1C"/>
<circle cx="1233.66" cy="604.544" r="1.95074" fill="#1C1C1C"/>
<circle cx="1288.4" cy="604.543" r="1.95074" fill="#1C1C1C"/>
<circle cx="1343.14" cy="604.543" r="1.95074" fill="#1C1C1C"/>
<circle cx="1397.87" cy="604.544" r="1.95074" fill="#1C1C1C"/>
<circle cx="29.4263" cy="659.281" r="1.95074" fill="#1C1C1C"/>
<circle cx="84.1644" cy="659.281" r="1.95074" fill="#1C1C1C"/>
<circle cx="138.902" cy="659.281" r="1.95074" fill="#1C1C1C"/>
<circle cx="193.64" cy="659.281" r="1.95074" fill="#1C1C1C"/>
<circle cx="248.378" cy="659.281" r="1.95074" fill="#1C1C1C"/>
<circle cx="303.116" cy="659.281" r="1.95074" fill="#1C1C1C"/>
<circle cx="357.854" cy="659.281" r="1.95074" fill="#1C1C1C"/>
<circle cx="412.592" cy="659.281" r="1.95074" fill="#1C1C1C"/>
<circle cx="467.33" cy="659.281" r="1.95074" fill="#1C1C1C"/>
<circle cx="522.067" cy="659.281" r="1.95074" fill="#1C1C1C"/>
<circle cx="576.805" cy="659.281" r="1.95074" fill="#1C1C1C"/>
<circle cx="631.544" cy="659.281" r="1.95074" fill="#1C1C1C"/>
<circle cx="686.281" cy="659.281" r="1.95074" fill="#1C1C1C"/>
<circle cx="741.019" cy="659.281" r="1.95074" fill="#1C1C1C"/>
<circle cx="795.757" cy="659.281" r="1.95074" fill="#1C1C1C"/>
<circle cx="850.495" cy="659.281" r="1.95074" fill="#1C1C1C"/>
<circle cx="905.233" cy="659.281" r="1.95074" fill="#1C1C1C"/>
<circle cx="959.971" cy="659.281" r="1.95074" fill="#1C1C1C"/>
<circle cx="1014.71" cy="659.281" r="1.95074" fill="#1C1C1C"/>
<circle cx="1069.45" cy="659.281" r="1.95074" fill="#1C1C1C"/>
<circle cx="1124.18" cy="659.281" r="1.95074" fill="#1C1C1C"/>
<circle cx="1178.92" cy="659.281" r="1.95074" fill="#1C1C1C"/>
<circle cx="1233.66" cy="659.281" r="1.95074" fill="#1C1C1C"/>
<circle cx="1288.4" cy="659.281" r="1.95074" fill="#1C1C1C"/>
<circle cx="1343.14" cy="659.281" r="1.95074" fill="#1C1C1C"/>
<circle cx="1397.87" cy="659.281" r="1.95074" fill="#1C1C1C"/>
<circle cx="29.4263" cy="714.019" r="1.95074" fill="#1C1C1C"/>
<circle cx="84.1644" cy="714.019" r="1.95074" fill="#1C1C1C"/>
<circle cx="138.902" cy="714.019" r="1.95074" fill="#1C1C1C"/>
<circle cx="193.64" cy="714.019" r="1.95074" fill="#1C1C1C"/>
<circle cx="248.378" cy="714.019" r="1.95074" fill="#1C1C1C"/>
<circle cx="303.116" cy="714.019" r="1.95074" fill="#1C1C1C"/>
<circle cx="357.854" cy="714.019" r="1.95074" fill="#1C1C1C"/>
<circle cx="412.592" cy="714.019" r="1.95074" fill="#1C1C1C"/>
<circle cx="467.33" cy="714.019" r="1.95074" fill="#1C1C1C"/>
<circle cx="522.067" cy="714.019" r="1.95074" fill="#1C1C1C"/>
<circle cx="576.805" cy="714.019" r="1.95074" fill="#1C1C1C"/>
<circle cx="631.544" cy="714.019" r="1.95074" fill="#1C1C1C"/>
<circle cx="686.281" cy="714.019" r="1.95074" fill="#1C1C1C"/>
<circle cx="741.019" cy="714.019" r="1.95074" fill="#1C1C1C"/>
<circle cx="795.757" cy="714.019" r="1.95074" fill="#1C1C1C"/>
<circle cx="850.495" cy="714.019" r="1.95074" fill="#1C1C1C"/>
<circle cx="905.233" cy="714.019" r="1.95074" fill="#1C1C1C"/>
<circle cx="959.971" cy="714.019" r="1.95074" fill="#1C1C1C"/>
<circle cx="1014.71" cy="714.019" r="1.95074" fill="#1C1C1C"/>
<circle cx="1069.45" cy="714.019" r="1.95074" fill="#1C1C1C"/>
<circle cx="1124.18" cy="714.019" r="1.95074" fill="#1C1C1C"/>
<circle cx="1178.92" cy="714.019" r="1.95074" fill="#1C1C1C"/>
<circle cx="1233.66" cy="714.019" r="1.95074" fill="#1C1C1C"/>
<circle cx="1288.4" cy="714.019" r="1.95074" fill="#1C1C1C"/>
<circle cx="1343.14" cy="714.019" r="1.95074" fill="#1C1C1C"/>
<circle cx="1397.87" cy="714.019" r="1.95074" fill="#1C1C1C"/>
<circle cx="29.4263" cy="768.757" r="1.95074" fill="#1C1C1C"/>
<circle cx="84.1644" cy="768.757" r="1.95074" fill="#1C1C1C"/>
<circle cx="138.902" cy="768.757" r="1.95074" fill="#1C1C1C"/>
<circle cx="193.64" cy="768.757" r="1.95074" fill="#1C1C1C"/>
<circle cx="248.378" cy="768.757" r="1.95074" fill="#1C1C1C"/>
<circle cx="303.116" cy="768.757" r="1.95074" fill="#1C1C1C"/>
<circle cx="357.854" cy="768.757" r="1.95074" fill="#1C1C1C"/>
<circle cx="412.592" cy="768.757" r="1.95074" fill="#1C1C1C"/>
<circle cx="467.33" cy="768.757" r="1.95074" fill="#1C1C1C"/>
<circle cx="522.067" cy="768.757" r="1.95074" fill="#1C1C1C"/>
<circle cx="576.805" cy="768.757" r="1.95074" fill="#737373" fill-opacity="0.5"/>
<circle cx="631.544" cy="768.757" r="1.95074" fill="#1C1C1C"/>
<circle cx="686.281" cy="768.757" r="1.95074" fill="#1C1C1C"/>
<circle cx="741.019" cy="768.757" r="1.95074" fill="#1C1C1C"/>
<circle cx="795.757" cy="768.757" r="1.95074" fill="#1C1C1C"/>
<circle cx="850.495" cy="768.757" r="1.95074" fill="#1C1C1C"/>
<circle cx="905.233" cy="768.757" r="1.95074" fill="#1C1C1C"/>
<circle cx="959.971" cy="768.757" r="1.95074" fill="#1C1C1C"/>
<circle cx="1014.71" cy="768.757" r="1.95074" fill="#1C1C1C"/>
<circle cx="1069.45" cy="768.757" r="1.95074" fill="#737373" fill-opacity="0.5"/>
<circle cx="1124.18" cy="768.757" r="1.95074" fill="#1C1C1C"/>
<circle cx="1178.92" cy="768.757" r="1.95074" fill="#1C1C1C"/>
<circle cx="1233.66" cy="768.757" r="1.95074" fill="#737373" fill-opacity="0.5"/>
<circle cx="1288.4" cy="768.757" r="1.95074" fill="#1C1C1C"/>
<circle cx="1343.14" cy="768.757" r="1.95074" fill="#1C1C1C"/>
<circle cx="1397.87" cy="768.757" r="1.95074" fill="#1C1C1C"/>
<circle cx="29.4263" cy="823.495" r="1.95074" fill="#1C1C1C"/>
<circle cx="84.1644" cy="823.495" r="1.95074" fill="#1C1C1C"/>
<circle cx="138.902" cy="823.495" r="1.95074" fill="#1C1C1C"/>
<circle cx="193.64" cy="823.495" r="1.95074" fill="#1C1C1C"/>
<circle cx="248.378" cy="823.495" r="1.95074" fill="#1C1C1C"/>
<circle cx="303.116" cy="823.495" r="1.95074" fill="#1C1C1C"/>
<circle cx="357.854" cy="823.495" r="1.95074" fill="#1C1C1C"/>
<circle cx="412.592" cy="823.495" r="1.95074" fill="#1C1C1C"/>
<circle cx="467.33" cy="823.495" r="1.95074" fill="#1C1C1C"/>
<circle cx="522.067" cy="823.495" r="1.95074" fill="#1C1C1C"/>
<circle cx="576.805" cy="823.495" r="1.95074" fill="#1C1C1C"/>
<circle cx="631.544" cy="823.495" r="1.95074" fill="#1C1C1C"/>
<circle cx="686.281" cy="823.495" r="1.95074" fill="#1C1C1C"/>
<circle cx="741.019" cy="823.495" r="1.95074" fill="#1C1C1C"/>
<circle cx="795.757" cy="823.495" r="1.95074" fill="#1C1C1C"/>
<circle cx="850.495" cy="823.495" r="1.95074" fill="#1C1C1C"/>
<circle cx="905.233" cy="823.495" r="1.95074" fill="#1C1C1C"/>
<circle cx="959.971" cy="823.495" r="1.95074" fill="#1C1C1C"/>
<circle cx="1014.71" cy="823.495" r="1.95074" fill="#1C1C1C"/>
<circle cx="1069.45" cy="823.495" r="1.95074" fill="#1C1C1C"/>
<circle cx="1124.18" cy="823.495" r="1.95074" fill="#1C1C1C"/>
<circle cx="1178.92" cy="823.495" r="1.95074" fill="#1C1C1C"/>
<circle cx="1233.66" cy="823.495" r="1.95074" fill="#1C1C1C"/>
<circle cx="1288.4" cy="823.495" r="1.95074" fill="#1C1C1C"/>
<circle cx="1343.14" cy="823.495" r="1.95074" fill="#1C1C1C"/>
<circle cx="1397.87" cy="823.495" r="1.95074" fill="#1C1C1C"/>
</g>
</svg>
