<svg width="14" height="22" viewBox="0 0 14 22" fill="none" xmlns="http://www.w3.org/2000/svg">
<path d="M1.87276 10.3307C3.47109 7.99999 5.55219 5.74757 7.59315 1.98047C17.3641 12.8816 12.0855 18.9255 6.69536 18.9255C0.842724 18.9255 0.0404802 13.0025 1.87276 10.3307Z" fill="#08E04A" stroke="#08E04A" stroke-width="1.77929"/>
<path fill-rule="evenodd" clip-rule="evenodd" d="M7.64648 7.35571L7.64648 21.2526L5.86719 21.2526L5.86719 7.35571L7.64648 7.35571Z" fill="black"/>
<path fill-rule="evenodd" clip-rule="evenodd" d="M7.6621 19.7031L7.6621 21.2649L5.88281 21.2649L5.88281 19.7031L7.6621 19.7031Z" fill="#08E04A"/>
<path fill-rule="evenodd" clip-rule="evenodd" d="M6.04492 13.0394L8.66698 9.9585L10.022 11.1117L7.39992 14.1926L6.04492 13.0394Z" fill="black"/>
<path fill-rule="evenodd" clip-rule="evenodd" d="M10.0195 16.084L7.39747 13.0359L6.04859 14.1962L8.67064 17.2444L10.0195 16.084Z" fill="black"/>
</svg>
