<svg width="99" height="26" viewBox="0 0 99 26" fill="none" xmlns="http://www.w3.org/2000/svg">
<g clip-path="url(#clip0_38_598)">
<path d="M29.665 7.41245H30.5366L34.3472 12.8276V7.41245H35.4647V15.1011H34.5707L30.7937 9.73009V15.1011H29.665V7.41245Z" fill="#1F2721"/>
<path d="M43.1954 11.8719C43.2028 11.9012 43.2066 11.9304 43.2066 11.9598C43.2066 11.9891 43.2066 12.022 43.2066 12.0586C43.2066 12.1758 43.1954 12.2857 43.1731 12.3881H38.0552C38.0552 12.7763 38.1613 13.1095 38.3737 13.3877C38.5859 13.666 38.8504 13.88 39.1671 14.0302C39.4837 14.1803 39.7909 14.2554 40.0889 14.2554C40.4614 14.2554 40.8097 14.1748 41.1337 14.0137C41.4578 13.8526 41.7093 13.6037 41.888 13.2669H43.0167C42.8677 13.6989 42.6405 14.0595 42.3351 14.3487C42.0296 14.638 41.6814 14.854 41.2902 14.9968C40.899 15.1396 40.4949 15.211 40.0778 15.211C39.6903 15.211 39.3104 15.1469 38.9379 15.0188C38.5654 14.8906 38.2303 14.6984 37.9321 14.4421C37.6341 14.1858 37.3977 13.8654 37.2226 13.4811C37.0475 13.0965 36.96 12.6481 36.96 12.1355C36.96 11.623 37.0475 11.1763 37.2226 10.7954C37.3977 10.4147 37.6341 10.0962 37.9321 9.83995C38.2303 9.58361 38.5654 9.3914 38.9379 9.2632C39.3104 9.13506 39.6978 9.07104 40.1 9.07104C40.5992 9.07104 41.0778 9.17544 41.536 9.38412C41.9942 9.59274 42.3759 9.90402 42.6814 10.3177C42.9868 10.7314 43.1582 11.2496 43.1953 11.8719H43.1954ZM42.0445 11.4985C41.9774 11.1397 41.8452 10.8522 41.6479 10.6363C41.4504 10.4202 41.2157 10.2628 40.9437 10.1639C40.6719 10.065 40.3906 10.0156 40.1 10.0156C39.8095 10.0156 39.5246 10.065 39.2452 10.1639C38.9659 10.2628 38.7238 10.4221 38.519 10.6418C38.314 10.8614 38.1744 11.147 38.0999 11.4985H42.0445V11.4985Z" fill="#1F2721"/>
<path d="M45.0823 15.1011V10.0486H44.1548V9.11497H45.0823C45.0823 8.46322 45.2556 7.99647 45.6019 7.71453C45.9484 7.43265 46.4494 7.29169 47.1049 7.29169C47.1719 7.29169 47.2427 7.29342 47.3172 7.29712C47.3917 7.30082 47.4662 7.30619 47.5407 7.31353V8.21428C47.4736 8.207 47.4066 8.20139 47.3395 8.19775C47.2725 8.19411 47.2092 8.19232 47.1496 8.19232C46.8591 8.19232 46.6243 8.25443 46.4456 8.37899C46.2668 8.50349 46.1774 8.74885 46.1774 9.11491H47.4066V10.0485H46.1774V15.1011H45.0823L45.0823 15.1011Z" fill="#1F2721"/>
<path d="M54.4903 11.8719C54.4977 11.9012 54.5015 11.9304 54.5015 11.9598C54.5015 11.9891 54.5015 12.022 54.5015 12.0586C54.5015 12.1758 54.4903 12.2857 54.468 12.3881H49.35C49.35 12.7763 49.4562 13.1095 49.6685 13.3877C49.8808 13.666 50.1453 13.88 50.4619 14.0302C50.7786 14.1803 51.0858 14.2554 51.3838 14.2554C51.7563 14.2554 52.1046 14.1748 52.4286 14.0137C52.7527 13.8526 53.0042 13.6037 53.1829 13.2669H54.3115C54.1626 13.6989 53.9354 14.0595 53.63 14.3487C53.3244 14.638 52.9763 14.854 52.5851 14.9968C52.194 15.1396 51.7898 15.211 51.3726 15.211C50.9852 15.211 50.6053 15.1469 50.2327 15.0188C49.8603 14.8906 49.5251 14.6984 49.2271 14.4421C48.929 14.1858 48.6926 13.8654 48.5175 13.4811C48.3424 13.0965 48.2549 12.6481 48.2549 12.1355C48.2549 11.623 48.3424 11.1763 48.5175 10.7954C48.6926 10.4147 48.9291 10.0962 49.2271 9.83995C49.5251 9.58361 49.8603 9.3914 50.2327 9.2632C50.6053 9.13506 50.9926 9.07104 51.3949 9.07104C51.8941 9.07104 52.3727 9.17544 52.8309 9.38412C53.2891 9.59274 53.6708 9.90402 53.9763 10.3177C54.2817 10.7314 54.453 11.2496 54.4902 11.8719H54.4903ZM53.3394 11.4985C53.2723 11.1397 53.1401 10.8522 52.9427 10.6363C52.7453 10.4202 52.5105 10.2628 52.2386 10.1639C51.9667 10.065 51.6855 10.0156 51.3949 10.0156C51.1044 10.0156 50.8195 10.065 50.5401 10.1639C50.2608 10.2628 50.0187 10.4221 49.8138 10.6418C49.6088 10.8614 49.4693 11.147 49.3948 11.4985H53.3394V11.4985Z" fill="#1F2721"/>
<path d="M56.6901 10.8723C56.6901 11.0555 56.7366 11.1981 56.8297 11.3008C56.9229 11.4033 57.0439 11.4765 57.1929 11.5204C57.342 11.5643 57.4966 11.5918 57.6567 11.6027C57.8168 11.6137 57.964 11.6229 58.098 11.6302C58.3811 11.6522 58.6661 11.6943 58.9529 11.7565C59.2398 11.8188 59.5023 11.914 59.7407 12.0421C59.9791 12.1702 60.171 12.346 60.3162 12.5694C60.4615 12.7927 60.534 13.0727 60.534 13.4096C60.534 13.7537 60.4577 14.0412 60.3051 14.2718C60.1523 14.5024 59.9511 14.6855 59.7015 14.821C59.452 14.9565 59.1783 15.0534 58.8802 15.112C58.5822 15.1706 58.2916 15.2 58.0086 15.2C57.5914 15.2 57.1985 15.1377 56.8296 15.0132C56.4609 14.8888 56.1573 14.6855 55.9189 14.4036C55.6805 14.1216 55.5464 13.7464 55.5166 13.2778H56.6118C56.6341 13.6073 56.7831 13.8544 57.0587 14.0191C57.3344 14.184 57.6585 14.2663 58.0309 14.2663C58.2172 14.2663 58.4183 14.2425 58.6344 14.1949C58.8505 14.1473 59.0385 14.0595 59.1988 13.9313C59.3588 13.8032 59.4391 13.6219 59.4391 13.3877C59.4391 13.2192 59.3887 13.0855 59.2882 12.9867C59.1876 12.8879 59.0591 12.811 58.9026 12.7561C58.7462 12.7011 58.5861 12.6627 58.4221 12.6408C58.2582 12.6188 58.1093 12.6041 57.9752 12.5969C57.707 12.5822 57.4332 12.5475 57.1539 12.4925C56.8745 12.4376 56.6174 12.3479 56.3827 12.2234C56.1482 12.0989 55.9601 11.9287 55.8185 11.7126C55.6769 11.4967 55.6061 11.2239 55.6061 10.8943C55.6061 10.433 55.7253 10.0669 55.9637 9.79605C56.2021 9.52509 56.5075 9.33097 56.8801 9.21381C57.2525 9.0967 57.6325 9.03812 58.0198 9.03812C58.4221 9.03812 58.7947 9.0967 59.1373 9.21381C59.48 9.33097 59.7631 9.5177 59.9866 9.77404C60.21 10.0303 60.3329 10.3671 60.3553 10.7845H59.2714C59.2416 10.5209 59.1019 10.3249 58.8523 10.1969C58.6028 10.0687 58.3141 10.0047 57.9864 10.0047C57.6511 10.0047 57.3513 10.0724 57.0868 10.2079C56.8223 10.3434 56.6901 10.5649 56.6901 10.8724V10.8723Z" fill="#1F2721"/>
<path d="M68.0085 12.1356C68.0085 12.6481 67.9173 13.0966 67.7348 13.4811C67.5521 13.8655 67.3044 14.1859 66.9916 14.4422C66.6788 14.6984 66.3267 14.8906 65.9357 15.0188C65.5445 15.1469 65.1441 15.211 64.7343 15.211C64.3321 15.211 63.9373 15.1469 63.5499 15.0188C63.1626 14.8906 62.8142 14.6984 62.505 14.4422C62.1959 14.1858 61.95 13.8655 61.7676 13.4811C61.5849 13.0966 61.4937 12.6481 61.4937 12.1356C61.4937 11.623 61.585 11.1744 61.7676 10.79C61.95 10.4056 62.1978 10.0852 62.5106 9.829C62.8235 9.57266 63.1756 9.38044 63.5667 9.2523C63.9578 9.1241 64.3582 9.06009 64.7678 9.06009C65.1776 9.06009 65.5743 9.1241 65.958 9.2523C66.3416 9.38044 66.6881 9.57266 66.9972 9.829C67.3064 10.0853 67.5522 10.4056 67.7349 10.79C67.9174 11.1744 68.0085 11.623 68.0085 12.1356H68.0085ZM62.5888 12.1356C62.5888 12.6042 62.6949 12.9941 62.9073 13.3054C63.1196 13.6165 63.3915 13.8509 63.723 14.0083C64.0545 14.1657 64.3991 14.2445 64.7566 14.2445C65.1217 14.2445 65.4681 14.1658 65.796 14.0083C66.1237 13.8509 66.3938 13.6147 66.6061 13.2998C66.8184 12.9849 66.9246 12.5969 66.9246 12.1356C66.9246 11.667 66.8203 11.2752 66.6118 10.9603C66.4032 10.6455 66.1331 10.4093 65.8016 10.2518C65.4701 10.0944 65.1255 10.0157 64.7679 10.0157C64.4029 10.0157 64.0546 10.0944 63.7231 10.2518C63.3916 10.4093 63.1196 10.6436 62.9074 10.9549C62.695 11.2661 62.5888 11.6597 62.5888 12.1356L62.5888 12.1356Z" fill="#1F2721"/>
<path d="M69.5042 15.1011V7.41245H70.5992V15.1011H69.5042Z" fill="#1F2721"/>
<path d="M72.5543 13.783C72.7628 13.783 72.9324 13.8452 73.0627 13.9698C73.1931 14.0943 73.2582 14.2591 73.2582 14.4641C73.2582 14.6252 73.1931 14.7771 73.0627 14.9199C72.9324 15.0627 72.7628 15.1341 72.5543 15.1341C72.368 15.1341 72.2097 15.0626 72.0794 14.9199C71.949 14.7771 71.8838 14.6251 71.8838 14.4641C71.8838 14.2591 71.949 14.0942 72.0794 13.9698C72.2097 13.8452 72.368 13.783 72.5543 13.783Z" fill="#1F2721"/>
<path d="M80.5323 12.8385C80.4354 13.3657 80.2305 13.8032 79.9177 14.151C79.6048 14.4989 79.2323 14.7588 78.8002 14.9309C78.3681 15.1029 77.9212 15.189 77.4592 15.189C77.0719 15.189 76.6919 15.1249 76.3195 14.9968C75.9469 14.8686 75.6118 14.6765 75.3137 14.4202C75.0157 14.1639 74.7793 13.8454 74.6042 13.4645C74.4291 13.0838 74.3416 12.6371 74.3416 12.1245C74.3416 11.612 74.4291 11.1634 74.6042 10.779C74.7793 10.3945 75.0176 10.076 75.3193 9.82345C75.6211 9.5708 75.9582 9.38038 76.3306 9.25224C76.7031 9.12404 77.0869 9.06003 77.4816 9.06003C77.9435 9.06003 78.3868 9.14605 78.8114 9.31816C79.236 9.49027 79.6048 9.75204 79.9177 10.1035C80.2305 10.455 80.4354 10.8943 80.5323 11.4216H79.4036C79.2695 10.9456 79.0218 10.5924 78.6605 10.3616C78.2993 10.1309 77.91 10.0156 77.4927 10.0156C77.1575 10.0156 76.8317 10.0925 76.515 10.2462C76.1984 10.4 75.9395 10.6325 75.7384 10.9437C75.5373 11.2549 75.4367 11.6485 75.4367 12.1245C75.4367 12.6004 75.5373 12.9959 75.7384 13.3107C75.9395 13.6256 76.1984 13.8598 76.515 14.0137C76.8317 14.1674 77.1613 14.2443 77.504 14.2443C77.9212 14.2443 78.3087 14.1272 78.6662 13.8928C79.0238 13.6585 79.2696 13.3071 79.4037 12.8384H80.5323L80.5323 12.8385Z" fill="#1F2721"/>
<path d="M88.1852 12.1356C88.1852 12.6481 88.094 13.0966 87.9116 13.4811C87.7289 13.8655 87.4812 14.1859 87.1684 14.4422C86.8555 14.6984 86.5035 14.8906 86.1125 15.0188C85.7212 15.1469 85.3209 15.211 84.9111 15.211C84.5088 15.211 84.114 15.1469 83.7267 15.0188C83.3393 14.8906 82.991 14.6984 82.6818 14.4422C82.3727 14.1858 82.1268 13.8655 81.9443 13.4811C81.7617 13.0966 81.6704 12.6481 81.6704 12.1356C81.6704 11.623 81.7618 11.1744 81.9443 10.79C82.1268 10.4056 82.3746 10.0852 82.6874 9.829C83.0002 9.57266 83.3524 9.38044 83.7434 9.2523C84.1345 9.1241 84.5349 9.06009 84.9446 9.06009C85.3543 9.06009 85.751 9.1241 86.1348 9.2523C86.5183 9.38044 86.8648 9.57266 87.174 9.829C87.4831 10.0853 87.729 10.4056 87.9116 10.79C88.0941 11.1744 88.1853 11.623 88.1853 12.1356H88.1852ZM82.7656 12.1356C82.7656 12.6042 82.8717 12.9941 83.0841 13.3054C83.2963 13.6165 83.5682 13.8509 83.8998 14.0083C84.2312 14.1657 84.5758 14.2445 84.9334 14.2445C85.2984 14.2445 85.6448 14.1658 85.9727 14.0083C86.3005 13.8509 86.5705 13.6147 86.7829 13.2998C86.9951 12.9849 87.1013 12.5969 87.1013 12.1356C87.1013 11.667 86.9971 11.2752 86.7885 10.9603C86.5799 10.6455 86.3098 10.4093 85.9783 10.2518C85.6469 10.0944 85.3023 10.0157 84.9447 10.0157C84.5797 10.0157 84.2313 10.0944 83.8998 10.2518C83.5683 10.4093 83.2964 10.6436 83.0841 10.9549C82.8718 11.2661 82.7656 11.6597 82.7656 12.1356L82.7656 12.1356Z" fill="#1F2721"/>
<path d="M90.9211 9.89492C91.1297 9.59461 91.3774 9.38039 91.6642 9.2523C91.9511 9.1241 92.2695 9.06009 92.6196 9.06009C93.0442 9.06009 93.4373 9.1278 93.7986 9.26328C94.1598 9.39876 94.4522 9.6752 94.6758 10.0926C95.0557 9.41886 95.7 9.07476 96.609 9.06009C97.1677 9.06009 97.6222 9.17725 97.9724 9.41158C98.3224 9.64597 98.5814 9.96263 98.749 10.3617C98.9166 10.7608 99.0004 11.213 99.0004 11.7183V15.1012H97.9053V11.7293C97.9053 11.4509 97.8736 11.1837 97.8103 10.9274C97.747 10.6711 97.624 10.4624 97.4415 10.3013C97.259 10.1402 96.9927 10.0597 96.6425 10.0597C96.1062 10.0597 95.7038 10.2209 95.4357 10.543C95.1676 10.8652 95.0334 11.268 95.0334 11.7513V15.1013H93.9382V11.7623C93.9382 11.484 93.8973 11.215 93.8153 10.955C93.7334 10.695 93.5955 10.4809 93.4019 10.3124C93.2082 10.144 92.9437 10.0597 92.6084 10.0597C92.1316 10.0597 91.7313 10.2153 91.4073 10.5266C91.0832 10.8378 90.9211 11.2863 90.9211 11.872V15.1014H89.8259V9.06026H90.9211V9.89514V9.89492Z" fill="#1F2721"/>
<path d="M29.6648 18.2204C29.697 18.117 29.7131 17.9769 29.7131 17.8001V16.8894C29.7131 16.8043 29.7084 16.7251 29.6991 16.6517C29.6898 16.5782 29.6783 16.5174 29.6648 16.469H30.1535C30.1399 16.5207 30.1289 16.5804 30.1204 16.6479C30.112 16.7155 30.1076 16.791 30.1076 16.8744V17.1796H31.22V16.8744C31.22 16.7892 31.2158 16.7125 31.2073 16.6442C31.1988 16.5758 31.1877 16.5174 31.1742 16.4691H31.6629C31.6493 16.5175 31.6383 16.5783 31.6298 16.6517C31.6213 16.7251 31.6171 16.8043 31.6171 16.8895V17.8002C31.6171 17.8853 31.6208 17.9644 31.6285 18.0379C31.6361 18.1113 31.6476 18.1722 31.6629 18.2206H31.1742C31.1877 18.1722 31.1988 18.1138 31.2073 18.0454C31.2157 17.977 31.22 17.9004 31.22 17.8152V17.505H30.1076V17.8152C30.1076 17.897 30.1111 17.9716 30.1179 18.0392C30.1247 18.1068 30.1365 18.1672 30.1535 18.2206H29.6648V18.2204Z" fill="#009444"/>
<path d="M34.1108 18.2204C34.143 18.117 34.1592 17.9769 34.1592 17.8001V16.8894C34.1592 16.8043 34.1545 16.7251 34.1451 16.6517C34.1359 16.5782 34.1243 16.5174 34.1108 16.469H35.8545L35.9181 16.8468C35.8892 16.8335 35.8464 16.8226 35.7896 16.8142C35.7328 16.806 35.6602 16.8017 35.5719 16.8017H34.5537V17.1795H35.3734C35.4905 17.1795 35.5795 17.1745 35.6407 17.1645V17.5198C35.5795 17.5098 35.4905 17.5048 35.3734 17.5048H34.5537V17.8876H35.5897C35.6898 17.8876 35.7704 17.8818 35.8316 17.8701C35.8927 17.8583 35.9419 17.8425 35.9792 17.8225L35.9054 18.2203H34.1109L34.1108 18.2204Z" fill="#009444"/>
<path d="M40.1708 18.2579C40.0758 18.2579 39.9989 18.2451 39.9404 18.2192C39.8818 18.1934 39.8343 18.1588 39.7979 18.1153C39.7614 18.072 39.73 18.0244 39.7037 17.9727C39.6774 17.9211 39.6511 17.8698 39.6248 17.8188C39.5985 17.7679 39.565 17.7208 39.5243 17.6774C39.4836 17.6341 39.4305 17.5995 39.3652 17.5737C39.2999 17.5477 39.2146 17.5348 39.1093 17.5348C39.0856 17.5348 39.0509 17.5356 39.0051 17.5373C38.9592 17.539 38.9147 17.5411 38.8715 17.5436C38.8282 17.546 38.7963 17.5506 38.776 17.5573V17.8176C38.776 17.986 38.7912 18.1203 38.8217 18.2204H38.333C38.3466 18.1704 38.3576 18.1091 38.3661 18.0365C38.3745 17.9639 38.3788 17.8852 38.3788 17.8V16.8893C38.3788 16.8042 38.3746 16.725 38.3661 16.6516C38.3577 16.5781 38.3466 16.5173 38.333 16.4689H39.565C39.7076 16.4689 39.8332 16.4864 39.9418 16.5214C40.0504 16.5565 40.1352 16.6082 40.1963 16.6765C40.2574 16.745 40.288 16.8283 40.288 16.9268C40.288 17.0202 40.2591 17.1031 40.2014 17.1757C40.1437 17.2483 40.0635 17.305 39.9608 17.3458C39.8582 17.3866 39.7381 17.4071 39.6006 17.4071H39.4453V17.4271H39.4658C39.5557 17.4271 39.6303 17.438 39.6897 17.4597C39.7492 17.4814 39.7984 17.5089 39.8374 17.5422C39.8765 17.5756 39.91 17.6111 39.9379 17.6485C39.9659 17.6861 39.9926 17.7216 40.0182 17.7549C40.0436 17.7883 40.072 17.8158 40.1034 17.8374C40.1347 17.8591 40.1733 17.87 40.2192 17.87C40.2888 17.87 40.3414 17.8541 40.377 17.8224C40.4126 17.7907 40.4414 17.7482 40.4635 17.6948L40.4813 18.1277C40.4525 18.166 40.4097 18.1973 40.3528 18.2215C40.2959 18.2456 40.2353 18.2577 40.1708 18.2577V18.2579ZM38.7758 17.2572H39.5064C39.6235 17.2572 39.7168 17.2376 39.7864 17.1985C39.856 17.1593 39.8908 17.1038 39.8908 17.0321C39.8908 16.962 39.8572 16.907 39.7902 16.8669C39.7231 16.8269 39.6345 16.8068 39.5242 16.8068H38.7758V17.2572Z" fill="#009444"/>
<path d="M45.2667 18.2204C45.3006 18.1721 45.3408 18.1099 45.3876 18.0341C45.4342 17.9581 45.4787 17.8802 45.5212 17.8001L46.0048 16.8893C46.0472 16.806 46.0798 16.7271 46.1028 16.6528C46.1257 16.5786 46.1414 16.5174 46.1498 16.469H46.7735C46.7854 16.5256 46.8028 16.5924 46.8258 16.6692C46.8486 16.7459 46.8771 16.8184 46.911 16.8868L47.3997 17.8001C47.4421 17.8818 47.4863 17.9602 47.532 18.0353C47.5778 18.1103 47.6178 18.1721 47.6517 18.2204H47.1528C47.1477 18.1871 47.1367 18.1487 47.1197 18.1054C47.1026 18.062 47.0755 18.0078 47.0383 17.9427L46.9644 17.8101H45.9539L45.88 17.9452C45.8494 18.0085 45.8241 18.0619 45.8036 18.1054C45.7833 18.1487 45.7705 18.1871 45.7655 18.2204H45.2666H45.2667ZM46.1015 17.5124H46.8169L46.5802 17.0645C46.5581 17.0178 46.5387 16.9723 46.5216 16.9282C46.5046 16.884 46.4877 16.8377 46.4707 16.7893H46.4478C46.4308 16.8394 46.4139 16.886 46.3969 16.9293C46.3799 16.9728 46.3595 17.0187 46.3358 17.067L46.1016 17.5124H46.1015Z" fill="#009444"/>
<path d="M50.8277 16.3514C50.7107 16.3514 50.6143 16.3235 50.5388 16.2677C50.4633 16.2117 50.4085 16.1496 50.3746 16.0812L50.5273 16.0062C50.5476 16.0495 50.5821 16.0922 50.6304 16.1338C50.6787 16.1755 50.7445 16.1963 50.8276 16.1963C50.9125 16.1963 50.9791 16.1759 51.0275 16.135C51.0759 16.0941 51.1093 16.0512 51.128 16.0062L51.2782 16.0812C51.2459 16.1496 51.1925 16.2117 51.1178 16.2677C51.0432 16.3235 50.9465 16.3514 50.8277 16.3514ZM50.9091 18.2555C50.6851 18.2555 50.4874 18.2184 50.3161 18.1441C50.1447 18.07 50.0111 17.9652 49.9151 17.8301C49.8192 17.6951 49.7712 17.5349 49.7712 17.3497C49.7712 17.1629 49.8201 17.0011 49.9177 16.8643C50.0152 16.7276 50.1501 16.6216 50.3224 16.5466C50.4946 16.4715 50.6919 16.434 50.9142 16.434C51.0619 16.434 51.1993 16.4461 51.3266 16.4703C51.4538 16.4944 51.5693 16.5257 51.6728 16.5641L51.6524 16.9169C51.598 16.8835 51.5332 16.856 51.4578 16.8344C51.3822 16.8126 51.3011 16.7959 51.2146 16.7842C51.128 16.7726 51.0423 16.7668 50.9574 16.7668C50.803 16.7668 50.666 16.7901 50.5463 16.8368C50.4267 16.8836 50.3329 16.9507 50.2651 17.0383C50.1972 17.1259 50.1633 17.2296 50.1633 17.3498C50.1633 17.4666 50.1951 17.5679 50.2587 17.6538C50.3223 17.7397 50.411 17.8056 50.5247 17.8514C50.6384 17.8973 50.77 17.9203 50.9193 17.9203C51.0347 17.9203 51.1454 17.9027 51.2514 17.8677C51.3575 17.8327 51.4402 17.7843 51.4996 17.7226V17.5124H51.0694C51.0321 17.5124 50.9896 17.5145 50.9421 17.5186C50.8946 17.5228 50.859 17.5291 50.8352 17.5375L50.853 17.1972H51.8763V17.9178C51.7796 18.0196 51.646 18.1012 51.4754 18.1629C51.3048 18.2247 51.1161 18.2555 50.909 18.2555L50.9091 18.2555Z" fill="#009444"/>
<path d="M54.0062 18.2204C54.0401 18.1721 54.0804 18.1099 54.127 18.0341C54.1737 17.9581 54.2182 17.8802 54.2606 17.8001L54.7442 16.8893C54.7867 16.806 54.8193 16.7271 54.8423 16.6528C54.8651 16.5786 54.8808 16.5174 54.8893 16.469H55.513C55.5249 16.5256 55.5423 16.5924 55.5652 16.6692C55.5881 16.7459 55.6165 16.8184 55.6505 16.8868L56.1392 17.8001C56.1816 17.8818 56.2257 17.9602 56.2715 18.0353C56.3174 18.1103 56.3572 18.1721 56.3912 18.2204H55.8923C55.8872 18.1871 55.8762 18.1487 55.8592 18.1054C55.8421 18.062 55.815 18.0078 55.7777 17.9427L55.7039 17.8101H54.6933L54.6195 17.9452C54.5889 18.0085 54.5635 18.0619 54.5431 18.1054C54.5228 18.1487 54.51 18.1871 54.505 18.2204H54.0061H54.0062ZM54.841 17.5124H55.5564L55.3196 17.0645C55.2976 17.0178 55.2781 16.9723 55.2611 16.9282C55.2442 16.884 55.2272 16.8377 55.2102 16.7893H55.1873C55.1702 16.8394 55.1533 16.886 55.1363 16.9293C55.1194 16.9728 55.099 17.0187 55.0753 17.067L54.8411 17.5124H54.841Z" fill="#009444"/>
<path d="M59.5848 18.7083C59.5254 18.7083 59.4693 18.7004 59.4168 18.6846C59.3642 18.6687 59.3243 18.6508 59.2972 18.6308L59.3379 18.5207C59.3719 18.5457 59.4113 18.5644 59.4562 18.577C59.5011 18.5895 59.5415 18.5958 59.5771 18.5958C59.6178 18.5958 59.6564 18.5883 59.693 18.5732C59.7295 18.5582 59.7477 18.534 59.7477 18.5007C59.7477 18.4456 59.7154 18.4181 59.6509 18.4181C59.6051 18.4181 59.5687 18.4315 59.5415 18.4582L59.4346 18.4056L59.4982 18.2454C59.3115 18.2271 59.1435 18.1809 58.9942 18.1066C58.8449 18.0324 58.7269 17.9315 58.6404 17.8038C58.5537 17.6762 58.5105 17.524 58.5105 17.3473C58.5105 17.2005 58.5406 17.0704 58.6009 16.957C58.6611 16.8435 58.7443 16.7481 58.8504 16.6704C58.9565 16.5929 59.0799 16.5341 59.2206 16.4941C59.3615 16.4541 59.5134 16.4341 59.6763 16.4341C59.8223 16.4341 59.9602 16.4483 60.09 16.4766C60.2198 16.505 60.3288 16.5417 60.4171 16.5867L60.384 16.962C60.3127 16.9086 60.2189 16.864 60.1027 16.8281C59.9864 16.7922 59.8604 16.7743 59.7247 16.7743C59.5719 16.7743 59.4341 16.7973 59.311 16.8431C59.188 16.889 59.0904 16.9545 59.0183 17.0396C58.9462 17.1248 58.9101 17.2273 58.9101 17.3474C58.9101 17.4691 58.9475 17.5721 59.0221 17.6564C59.0968 17.7407 59.1977 17.8048 59.325 17.849C59.4523 17.8932 59.5957 17.9154 59.7553 17.9154C59.8978 17.9154 60.034 17.8962 60.1638 17.8578C60.2936 17.8195 60.4017 17.7669 60.4883 17.7002V18.1031C60.3848 18.1497 60.2651 18.1869 60.1294 18.2144C59.9937 18.2419 59.8451 18.2556 59.6839 18.2556H59.6355L59.5923 18.3582C59.6059 18.3482 59.6228 18.3411 59.6432 18.337C59.6636 18.3328 59.6831 18.3307 59.7018 18.3307C59.7561 18.3307 59.8007 18.3462 59.8354 18.377C59.8702 18.4079 59.8876 18.45 59.8876 18.5033C59.8876 18.57 59.8571 18.621 59.7959 18.656C59.7349 18.691 59.6644 18.7085 59.5847 18.7085L59.5848 18.7083Z" fill="#009444"/>
<path d="M65.5667 18.2204C65.5819 18.1721 65.5933 18.1112 65.601 18.0378C65.6086 17.9643 65.6125 17.8852 65.6125 17.8001V16.8893C65.6125 16.8042 65.6082 16.725 65.5997 16.6516C65.5913 16.5782 65.5802 16.5174 65.5667 16.469H66.8521C66.9641 16.469 67.0651 16.4852 67.155 16.5177C67.245 16.5503 67.3166 16.5978 67.3701 16.6604C67.4235 16.723 67.4502 16.8009 67.4502 16.8944C67.4502 16.9728 67.4274 17.0424 67.3816 17.1033C67.3357 17.1642 67.2737 17.2113 67.1957 17.2446C67.1176 17.2781 67.0293 17.2947 66.931 17.2947H66.9055V17.3198H66.9539C67.0659 17.3198 67.1669 17.336 67.2568 17.3685C67.3468 17.4011 67.4184 17.4494 67.4719 17.5136C67.5254 17.5779 67.5521 17.6592 67.5521 17.7577C67.5521 17.8576 67.5237 17.9419 67.4668 18.0103C67.41 18.0787 67.3319 18.1308 67.2327 18.1666C67.1334 18.2026 67.0209 18.2205 66.8954 18.2205H65.5667V18.2204ZM66.0095 17.1696H66.7324C66.8257 17.1696 66.9042 17.1525 66.9679 17.1184C67.0315 17.0841 67.0633 17.0336 67.0633 16.9669C67.0633 16.9002 67.0319 16.8502 66.9691 16.8168C66.9064 16.7834 66.8291 16.7667 66.7375 16.7667H66.0095V17.1696ZM66.0095 17.9102H66.7757C66.8877 17.9102 66.9785 17.8911 67.0481 17.8527C67.1176 17.8143 67.1524 17.7584 67.1524 17.685C67.1524 17.61 67.1163 17.552 67.0442 17.5112C66.972 17.4703 66.8808 17.4499 66.7706 17.4499H66.0094V17.9103L66.0095 17.9102Z" fill="#009444"/>
<path d="M70.1528 16.344C70.1087 16.344 70.0713 16.331 70.0408 16.3052C70.0102 16.2793 69.995 16.2456 69.995 16.2038C69.995 16.1605 70.0103 16.1259 70.0408 16.1C70.0713 16.0741 70.1087 16.0612 70.1528 16.0612C70.1969 16.0612 70.2342 16.0741 70.2648 16.1C70.2954 16.1258 70.3106 16.1605 70.3106 16.2038C70.3106 16.2456 70.2953 16.2793 70.2648 16.3052C70.2342 16.331 70.1969 16.344 70.1528 16.344ZM69.9084 18.2204C69.9237 18.1721 69.9351 18.1112 69.9427 18.0378C69.9504 17.9643 69.9543 17.8852 69.9543 17.8001V16.8894C69.9543 16.8042 69.95 16.725 69.9415 16.6516C69.9331 16.5782 69.922 16.5174 69.9084 16.469H70.3971C70.3836 16.5174 70.3725 16.5782 70.3641 16.6516C70.3556 16.725 70.3513 16.8042 70.3513 16.8894V17.8001C70.3513 17.8852 70.3556 17.9643 70.3641 18.0378C70.3725 18.1112 70.3836 18.1721 70.3971 18.2204H69.9084Z" fill="#009444"/>
<path d="M74.6891 18.2579C74.594 18.2579 74.5172 18.2451 74.4588 18.2192C74.4001 18.1934 74.3526 18.1588 74.3161 18.1153C74.2797 18.072 74.2483 18.0244 74.222 17.9727C74.1957 17.9211 74.1693 17.8698 74.143 17.8188C74.1168 17.7679 74.0833 17.7208 74.0426 17.6774C74.0018 17.6341 73.9488 17.5995 73.8836 17.5737C73.8181 17.5477 73.7329 17.5348 73.6277 17.5348C73.604 17.5348 73.5692 17.5356 73.5233 17.5373C73.4775 17.539 73.433 17.5411 73.3897 17.5436C73.3465 17.546 73.3146 17.5506 73.2943 17.5573V17.8176C73.2943 17.986 73.3095 18.1203 73.34 18.2204H72.8513C72.8649 18.1704 72.8759 18.1091 72.8844 18.0365C72.8929 17.9639 72.8971 17.8852 72.8971 17.8V16.8893C72.8971 16.8042 72.8929 16.725 72.8844 16.6516C72.876 16.5781 72.8649 16.5173 72.8513 16.4689H74.0833C74.2259 16.4689 74.3515 16.4864 74.4601 16.5214C74.5687 16.5565 74.6535 16.6082 74.7146 16.6765C74.7757 16.745 74.8063 16.8283 74.8063 16.9268C74.8063 17.0202 74.7774 17.1031 74.7197 17.1757C74.662 17.2483 74.5818 17.305 74.4792 17.3458C74.3765 17.3866 74.2564 17.4071 74.1189 17.4071H73.9636V17.4271H73.984C74.074 17.4271 74.1486 17.438 74.2081 17.4597C74.2674 17.4814 74.3167 17.5089 74.3557 17.5422C74.3947 17.5756 74.4283 17.6111 74.4562 17.6485C74.4842 17.6861 74.511 17.7216 74.5364 17.7549C74.5618 17.7883 74.5903 17.8158 74.6217 17.8374C74.6531 17.8591 74.6916 17.87 74.7374 17.87C74.8071 17.87 74.8596 17.8541 74.8952 17.8224C74.9309 17.7907 74.9597 17.7482 74.9818 17.6948L74.9996 18.1277C74.9708 18.166 74.928 18.1973 74.8711 18.2215C74.8143 18.2456 74.7535 18.2577 74.6891 18.2577V18.2579ZM73.2942 17.2572H74.0247C74.1417 17.2572 74.2351 17.2376 74.3047 17.1985C74.3743 17.1593 74.409 17.1038 74.409 17.0321C74.409 16.962 74.3755 16.907 74.3085 16.8669C74.2414 16.8269 74.1528 16.8068 74.0425 16.8068H73.2942V17.2572Z" fill="#009444"/>
<path d="M80.0215 18.2204C80.035 18.1721 80.0465 18.1112 80.0558 18.0378C80.0651 17.9643 80.0699 17.8852 80.0699 17.8001V16.8894C80.0699 16.7125 80.0537 16.5724 80.0215 16.469H80.4822L81.6658 17.6975H81.699V16.8818C81.699 16.795 81.6943 16.7146 81.685 16.6403C81.6756 16.5662 81.6651 16.509 81.6531 16.469H82.1419C82.1283 16.5174 82.1173 16.5782 82.1088 16.6517C82.1004 16.7251 82.096 16.8043 82.096 16.8894V18.2204H81.7321L80.4949 16.9519H80.4643V17.7726C80.4643 17.8593 80.469 17.9448 80.4784 18.0291C80.4877 18.1133 80.4983 18.1772 80.5101 18.2204H80.0215H80.0215Z" fill="#009444"/>
<path d="M84.5896 18.2204C84.6218 18.117 84.638 17.9769 84.638 17.8001V16.8894C84.638 16.8043 84.6332 16.7251 84.6239 16.6517C84.6146 16.5782 84.6031 16.5174 84.5896 16.469H86.3333L86.3969 16.8468C86.368 16.8335 86.3252 16.8226 86.2684 16.8142C86.2115 16.806 86.139 16.8017 86.0507 16.8017H85.0325V17.1795H85.8522C85.9693 17.1795 86.0584 17.1745 86.1195 17.1645V17.5198C86.0584 17.5098 85.9693 17.5048 85.8522 17.5048H85.0325V17.8876H86.0685C86.1687 17.8876 86.2492 17.8818 86.3104 17.8701C86.3715 17.8583 86.4207 17.8425 86.458 17.8225L86.3842 18.2203H84.5897L84.5896 18.2204Z" fill="#009444"/>
<path d="M88.8094 18.2204C88.8247 18.1721 88.8361 18.1112 88.8437 18.0378C88.8513 17.9643 88.8552 17.8852 88.8552 17.8001V16.8893C88.8552 16.8042 88.8509 16.725 88.8424 16.6516C88.834 16.5782 88.8229 16.5174 88.8094 16.469H90.5531L90.6192 16.8543C90.5886 16.8393 90.5423 16.8281 90.4805 16.8205C90.4185 16.813 90.3443 16.8092 90.2577 16.8092H89.2522V17.2221H90.0846C90.2017 17.2221 90.2908 17.217 90.3519 17.207V17.5623C90.2908 17.5523 90.2017 17.5472 90.0846 17.5472H89.2522V17.83C89.2522 17.9918 89.2675 18.1219 89.298 18.2203H88.8093L88.8094 18.2204Z" fill="#009444"/>
<path d="M92.9324 18.2204C92.9646 18.117 92.9807 17.9769 92.9807 17.8001V16.8894C92.9807 16.8043 92.976 16.7251 92.9667 16.6517C92.9574 16.5782 92.9459 16.5174 92.9324 16.469H94.6761L94.7396 16.8468C94.7108 16.8335 94.668 16.8226 94.6111 16.8142C94.5543 16.806 94.4818 16.8017 94.3935 16.8017H93.3753V17.1795H94.195C94.312 17.1795 94.4011 17.1745 94.4622 17.1645V17.5198C94.4011 17.5098 94.312 17.5048 94.195 17.5048H93.3753V17.8876H94.4113C94.5114 17.8876 94.5919 17.8818 94.6531 17.8701C94.7142 17.8583 94.7635 17.8425 94.8008 17.8225L94.7269 18.2203H92.9324L92.9324 18.2204Z" fill="#009444"/>
<path d="M98.0507 18.2555C97.9489 18.2555 97.8372 18.248 97.7159 18.233C97.5946 18.218 97.4749 18.1972 97.357 18.1705C97.2391 18.1438 97.1334 18.1129 97.04 18.0779L97.0579 17.6801C97.192 17.7635 97.3438 17.8256 97.5135 17.8665C97.6832 17.9073 97.8597 17.9278 98.043 17.9278C98.2042 17.9278 98.3354 17.9123 98.4363 17.8815C98.5372 17.8506 98.5877 17.7968 98.5877 17.72C98.5877 17.6751 98.5665 17.6388 98.5241 17.6112C98.4817 17.5837 98.4244 17.562 98.3523 17.5462C98.2802 17.5303 98.1992 17.517 98.1092 17.5062C98.0193 17.4953 97.9267 17.4833 97.8317 17.4699C97.7367 17.4566 97.6442 17.4387 97.5542 17.4162C97.4643 17.3936 97.3832 17.3631 97.3111 17.3248C97.239 17.2864 97.1817 17.2368 97.1394 17.1759C97.0969 17.1151 97.0757 17.0396 97.0757 16.9495C97.0757 16.8361 97.1178 16.7414 97.2018 16.6655C97.2857 16.5896 97.3989 16.5322 97.5416 16.4929C97.6841 16.4537 97.8411 16.4341 98.0124 16.4341C98.1092 16.4341 98.2072 16.44 98.3064 16.4516C98.4057 16.4633 98.4999 16.4795 98.589 16.5004C98.6781 16.5212 98.7557 16.5459 98.822 16.5743V16.9445C98.7286 16.8912 98.6107 16.8479 98.4681 16.8144C98.3255 16.781 98.1788 16.7644 98.0277 16.7644C97.9327 16.7644 97.8435 16.7698 97.7605 16.7807C97.6773 16.7915 97.6107 16.8107 97.5607 16.8382C97.5105 16.8657 97.4856 16.9045 97.4856 16.9546C97.4856 17.0013 97.5068 17.0388 97.5491 17.0671C97.5916 17.0955 97.6489 17.1176 97.7209 17.1335C97.7931 17.1493 97.8742 17.1631 97.9641 17.1747C98.0541 17.1864 98.1469 17.1985 98.2428 17.211C98.3388 17.2235 98.4316 17.2406 98.5216 17.2622C98.6115 17.284 98.6926 17.3132 98.7647 17.3499C98.8368 17.3866 98.8941 17.4346 98.9365 17.4938C98.9789 17.553 99.0001 17.6276 99.0001 17.7177C99.0001 17.8295 98.9612 17.9254 98.8831 18.0054C98.805 18.0855 98.6951 18.1472 98.5535 18.1906C98.4118 18.2339 98.2442 18.2556 98.0507 18.2556L98.0507 18.2555Z" fill="#009444"/>
<path d="M15.2001 0.25061C15.2001 0.25061 13.3429 0.753489 13.7909 2.502C15.5791 2.11091 15.2001 0.25061 15.2001 0.25061Z" fill="#009444"/>
<path d="M17.4472 0.838949C17.4472 0.838949 15.5268 0.692381 15.3469 2.4871C17.1642 2.71543 17.4472 0.838949 17.4472 0.838949Z" fill="#009444"/>
<path d="M19.1935 1.75793C19.1935 1.75793 18.232 1.95564 18.4035 2.85969C19.3263 2.71654 19.1935 1.75793 19.1935 1.75793Z" fill="#009444"/>
<path d="M24.1501 16.0911C24.0891 15.9759 23.9888 15.817 23.8341 15.6518C23.7558 15.5701 23.6653 15.4865 23.5611 15.4079C23.4562 15.3304 23.3396 15.2546 23.2109 15.1915C23.0885 15.1279 22.9323 15.0672 22.7982 15.028C22.7288 15.0081 22.6591 14.9878 22.5889 14.9676C22.5236 14.9474 22.4572 14.9332 22.3928 14.9081C21.8714 14.7343 21.394 14.4409 21.0581 14.2005C20.9925 14.1535 20.9337 14.1095 20.8789 14.0675C21.192 13.8927 21.5534 13.8038 21.9113 13.7469C22.5868 13.6393 23.2778 13.6261 23.9572 13.7079C24.0571 13.7198 24.202 13.695 24.1928 13.5962C24.1517 13.5853 24.1106 13.575 24.0694 13.565C23.1448 13.3424 22.17 13.3237 21.2375 13.5118C20.8201 13.5962 20.3978 13.7284 20.0774 14.005C19.7465 14.2908 19.5532 14.7052 19.2264 14.9952C18.768 15.4017 18.0986 15.5093 17.4886 15.4202C16.8786 15.3311 16.3106 15.0689 15.753 14.8098C16.0035 13.9924 15.8598 13.0262 16.4009 12.3594C16.6523 12.0495 17.0179 11.8547 17.3731 11.6681C17.7157 11.4881 18.0649 11.3059 18.4462 11.2332C19.0752 11.1132 19.7161 11.3024 20.3473 11.4108C21.1302 11.5451 21.9798 11.5436 22.6668 11.1505C22.6062 11.021 22.4124 11.0629 22.2753 11.1093C21.0451 11.5259 19.7592 10.5459 18.4598 10.6065C17.9129 10.6318 17.3946 10.8416 16.8898 11.0504C16.2663 11.3083 15.5887 11.6215 15.3178 12.2317C15.2147 11.6789 15.5393 11.1256 15.9615 10.7471C16.3835 10.3688 16.9026 10.1126 17.3582 9.77376C17.8137 9.43486 18.225 8.96928 18.2778 8.40956C18.311 8.06075 18.2013 7.71671 18.1344 7.37289C18.0122 6.74506 18.0321 6.09091 18.1924 5.47148C18.2236 5.3505 18.2057 5.16137 18.0797 5.17605C17.8197 5.99205 17.7559 6.8681 17.8955 7.71251C17.9316 7.9325 17.9819 8.15524 17.9515 8.37612C17.8993 8.75607 17.6185 9.06696 17.3131 9.30454C16.5065 9.93186 15.4035 10.2718 14.9204 11.1654C14.7117 11.5513 14.6491 12.0118 14.7472 12.4382C14.7862 12.6081 14.8497 12.7722 14.878 12.9441C14.9594 13.4404 14.7519 14.0844 14.5255 14.5266C14.4908 14.5944 14.4679 14.6695 14.4271 14.7288C14.3879 14.7884 14.3494 14.8474 14.3112 14.9053C14.1442 15.1206 13.9706 15.295 13.7674 15.398C13.646 15.4662 13.5238 15.5181 13.4026 15.5572C13.3782 15.2288 13.3421 14.773 13.2907 14.2279C13.2369 13.6625 13.1681 13.0031 13.0682 12.2926C13.02 11.9381 12.9581 11.5685 12.8845 11.1904C12.8111 10.7814 12.6673 10.3943 12.628 10.1421C12.5833 9.85105 12.6163 9.52475 12.6873 9.18396C12.7565 8.84321 12.8622 8.48724 12.9218 8.11121C12.9813 7.73317 12.9884 7.33928 12.8423 6.9599C12.8097 6.85533 12.7681 6.80118 12.7308 6.72921L12.7024 6.67807L12.6802 6.63663L12.6667 6.61417L12.6131 6.52484C12.5748 6.46687 12.5446 6.40616 12.5179 6.34489C12.4877 6.28497 12.4615 6.22454 12.4425 6.16259C12.2666 5.67243 12.3035 5.20416 12.3685 4.89652C12.4006 4.74082 12.4382 4.62018 12.4672 4.53948C12.4968 4.45861 12.5159 4.41795 12.5159 4.41795L12.4455 4.37997C12.4455 4.37997 12.333 4.53886 12.2151 4.85362C12.0993 5.16468 11.974 5.65568 12.0867 6.25444C12.098 6.3296 12.1173 6.40443 12.1411 6.47976C12.1616 6.55648 12.1863 6.6336 12.2199 6.70877L12.2674 6.82442L12.2795 6.8536C12.2873 6.86928 12.2705 6.83646 12.2739 6.84447L12.2765 6.85113L12.2815 6.86485L12.3017 6.91968C12.326 6.99048 12.3659 7.07476 12.3647 7.12859C12.3723 7.18891 12.3877 7.24306 12.3843 7.31598C12.3875 7.38392 12.3882 7.45258 12.3759 7.52455C12.3713 7.59461 12.3565 7.66753 12.3382 7.74135C12.3253 7.81388 12.2982 7.89044 12.2756 7.96616C12.1781 8.27178 12.0268 8.59416 11.8907 8.9578C11.7557 9.3196 11.6346 9.73405 11.6284 10.189L11.6276 10.3596C11.6316 10.4165 11.6391 10.4735 11.6453 10.5308L11.6801 10.825C11.7099 11.0199 11.7096 11.167 11.7212 11.3349C11.7344 11.6852 11.739 12.0347 11.7324 12.3774C11.7225 13.0609 11.6903 13.7054 11.6575 14.257C11.6322 14.6769 11.6059 15.0433 11.5834 15.3365C11.4228 15.2315 11.2788 15.0838 11.1403 14.9054C11.1022 14.8474 11.0635 14.7884 11.0243 14.7289C10.9835 14.6696 10.9606 14.5944 10.9259 14.5267C10.852 14.3931 10.8123 14.2314 10.7625 14.0708C10.7067 13.8923 10.6636 13.6889 10.6125 13.4953C10.5712 13.3603 10.533 13.2209 10.489 13.0814C10.5576 12.9446 10.6266 12.7652 10.6829 12.5479C10.7324 12.3465 10.7606 12.1084 10.7432 11.8452C10.7143 11.5826 10.6321 11.2996 10.4731 11.0424C10.3059 10.7958 10.0928 10.5615 9.83381 10.3943C9.7713 10.3514 9.70509 10.3023 9.64418 10.2641C9.58287 10.2267 9.52105 10.1892 9.45889 10.1512C9.33564 10.0753 9.21091 9.99857 9.0851 9.92094C8.83667 9.7639 8.5838 9.60411 8.34643 9.4324C8.11019 9.26046 7.88358 9.07788 7.71259 8.87217C7.54148 8.66629 7.45322 8.43403 7.46712 8.19057C7.47749 8.12947 7.47533 8.06859 7.49402 8.00794C7.51031 7.94303 7.52644 7.87856 7.54234 7.81483C7.57749 7.69094 7.60256 7.53984 7.61698 7.40761C7.64621 7.14141 7.64023 6.89235 7.62598 6.66486C7.59738 6.20925 7.52547 5.83843 7.47356 5.57985C7.41892 5.32172 7.37789 5.17509 7.37789 5.17509L7.23111 5.21083C7.23111 5.21083 7.26308 5.35415 7.30279 5.60981C7.33983 5.86554 7.39037 6.23361 7.39356 6.67303C7.39556 6.89213 7.38786 7.1301 7.34747 7.37283C7.3265 7.49414 7.30485 7.60324 7.25983 7.73681C7.23949 7.80313 7.21898 7.86988 7.19818 7.9372C7.17311 8.00766 7.16781 8.08764 7.15254 8.16397C7.11117 8.48052 7.22696 8.83162 7.42296 9.08712C7.61692 9.34755 7.85458 9.55673 8.09424 9.75236C8.33532 9.94715 8.58397 10.1231 8.82847 10.2968C8.95115 10.3817 9.07297 10.466 9.19319 10.5492C9.25325 10.5904 9.31285 10.6313 9.37211 10.6717C9.43068 10.7131 9.47604 10.7528 9.52812 10.7925C9.73888 10.9432 9.88378 11.1336 9.99723 11.3155C10.099 11.505 10.142 11.6997 10.1541 11.8823C10.1543 12.0034 10.1389 12.1158 10.1177 12.2233C10.114 12.2172 10.1116 12.2112 10.1077 12.2051L10.0107 12.0444L9.89176 11.8877C9.81757 11.7822 9.71074 11.6876 9.61416 11.5954C9.40407 11.4145 9.15855 11.2934 8.9381 11.2088C8.7144 11.1229 8.51497 11.0688 8.334 11.002C8.24033 10.971 8.1572 10.9335 8.07042 10.8981C8.02757 10.88 7.98854 10.8576 7.94729 10.8378L7.80353 10.7648L7.73447 10.7309C7.70763 10.7185 7.66803 10.7031 7.63527 10.6903C7.56365 10.6603 7.5033 10.6468 7.44154 10.6308C7.31772 10.6012 7.19653 10.589 7.07955 10.5841C6.61261 10.5757 6.22104 10.6816 5.86094 10.7756C5.50174 10.8741 5.17445 10.9745 4.87058 11.051C4.56751 11.1264 4.28837 11.1817 4.04017 11.2012C3.79202 11.2222 3.57556 11.2117 3.40069 11.1828C3.22474 11.1568 3.09283 11.1092 3.00314 11.0767C2.91545 11.0388 2.86873 11.0185 2.86873 11.0185L2.79432 11.1481C2.79432 11.1481 2.84241 11.1754 2.93243 11.2269C3.02508 11.2727 3.16388 11.3405 3.35317 11.3905C3.54131 11.4431 3.77772 11.4808 4.04837 11.4874C4.31936 11.4956 4.62181 11.4693 4.94539 11.4256C5.2683 11.3807 5.61228 11.3155 5.96766 11.2588C6.32053 11.2042 6.69585 11.1565 7.0285 11.2024C7.11009 11.2155 7.18867 11.2329 7.2596 11.2592C7.29453 11.273 7.33242 11.2863 7.35305 11.3C7.36678 11.3078 7.37533 11.3099 7.39379 11.3206L7.45846 11.3616L7.59179 11.4492C7.64957 11.487 7.74649 11.5454 7.80689 11.579C7.88068 11.62 7.95504 11.6607 8.02911 11.6948C8.23144 11.795 8.43269 11.8752 8.59577 11.9609C8.76112 12.0473 8.89046 12.1358 8.99046 12.2449C9.18744 12.4654 9.31729 12.7972 9.40561 13.1594C9.45684 13.3382 9.4782 13.5198 9.51399 13.7013C9.54367 13.904 9.56162 14.0961 9.5998 14.2999C9.63171 14.4766 9.65968 14.6514 9.71028 14.8235C9.54578 14.8987 9.36293 14.9779 9.16015 15.0567C8.72443 15.2223 8.19805 15.3975 7.64991 15.4458C7.37789 15.4698 7.10092 15.4567 6.86764 15.3739C6.8077 15.3552 6.75545 15.3267 6.70058 15.3006L6.50429 15.1767C6.43717 15.1333 6.38987 15.0932 6.3305 15.0513C6.27392 15.0095 6.2199 14.9576 6.16367 14.9111C5.94418 14.7145 5.78561 14.4696 5.55256 14.1919C5.43405 14.0583 5.29439 13.9234 5.13474 13.8313C5.05884 13.7772 4.97514 13.7465 4.89645 13.7052C4.81605 13.6709 4.73525 13.6441 4.65588 13.6143C4.33891 13.5158 4.02444 13.4732 3.74701 13.4368C3.45345 13.4036 3.18183 13.3876 2.92873 13.3847C2.42298 13.3815 2.00424 13.4326 1.71564 13.4882C1.5712 13.5165 1.45884 13.5443 1.38231 13.5657C1.30499 13.5895 1.26368 13.6023 1.26368 13.6023L1.31006 13.7441C1.31006 13.7441 1.34835 13.7357 1.42009 13.7204C1.49394 13.7065 1.60362 13.6893 1.74407 13.6743C2.02515 13.6451 2.43141 13.631 2.91357 13.6762C3.15408 13.6996 3.41539 13.7386 3.68137 13.7919C3.96079 13.8531 4.23629 13.9174 4.50164 14.0253C4.52871 14.0366 4.55286 14.0504 4.57879 14.0624C4.52238 14.1059 4.46147 14.1515 4.39332 14.2004C4.05754 14.4407 3.57989 14.7341 3.05864 14.9079C2.99431 14.933 2.92782 14.9473 2.86252 14.9674C2.79238 14.9876 2.72246 15.0079 2.65312 15.0279C2.51911 15.067 2.36281 15.1277 2.24042 15.1913C2.11176 15.2544 1.99512 15.3302 1.89034 15.4077C1.78601 15.4863 1.69553 15.5699 1.61735 15.6516C1.46271 15.8169 1.36237 15.9758 1.30118 16.091C1.27018 16.1486 1.24967 16.1962 1.23599 16.2288C1.22283 16.2637 1.21582 16.2822 1.21582 16.2822L1.35793 16.3328C1.35793 16.3328 1.36488 16.3186 1.37804 16.2921C1.39285 16.2647 1.41508 16.224 1.44807 16.1746C1.51314 16.0757 1.61855 15.9397 1.77091 15.8048C1.84806 15.7382 1.93552 15.6714 2.03444 15.6105C2.13381 15.5508 2.24213 15.4937 2.36036 15.4491C2.41951 15.4268 2.47933 15.4024 2.53996 15.3879C2.60042 15.371 2.65848 15.3522 2.73158 15.3403C2.80001 15.3273 2.86896 15.3142 2.93813 15.3008C3.01169 15.2857 3.08787 15.276 3.16018 15.2554C3.75037 15.1171 4.29048 14.8497 4.6756 14.6253C4.8197 14.5413 4.94289 14.4631 5.04123 14.3975C5.07479 14.4351 5.1083 14.4727 5.13833 14.5156C5.30015 14.7432 5.4741 15.0665 5.72111 15.3324C5.78504 15.3968 5.84407 15.4634 5.91347 15.5258C5.98236 15.5857 6.05723 15.6548 6.12304 15.7059L6.32771 15.8613C6.41398 15.9161 6.50127 15.9706 6.59295 16.0101C6.95944 16.1769 7.3359 16.2175 7.678 16.2193C8.36779 16.2166 8.96249 16.0672 9.46151 15.9277C9.70088 15.8579 9.91597 15.7862 10.1074 15.7179C10.252 15.666 10.8765 16.9993 10.9234 17.1342C11.3117 18.2546 10.9433 19.3607 10.5535 20.4266C10.5535 20.4266 10.5515 20.4347 10.5474 20.4465C10.481 20.6251 10.4145 20.7957 10.348 20.9544C10.3461 20.9603 10.3421 20.9663 10.34 20.9743C10.1123 21.4324 9.69125 22.0397 8.99411 22.1944C8.94579 22.2063 8.89343 22.2162 8.84106 22.2222C8.71816 22.24 8.5952 22.2579 8.47434 22.2756C8.21851 22.3035 7.96062 22.3312 7.70068 22.359C7.44274 22.3888 7.16075 22.4424 6.9089 22.5119C6.653 22.5852 6.4052 22.6785 6.18156 22.7917C5.95586 22.8987 5.75239 23.0237 5.559 23.1288C5.36562 23.2361 5.18021 23.3254 4.9989 23.3769C4.81958 23.4364 4.64631 23.4603 4.49121 23.4721C4.33606 23.49 4.19709 23.474 4.08421 23.4779C3.85857 23.4562 3.72957 23.4442 3.72957 23.4442L3.72159 23.4919C3.72159 23.4919 3.8506 23.5158 4.07817 23.5554C4.19304 23.5613 4.33207 23.5871 4.49526 23.5812C4.6564 23.5831 4.84175 23.5713 5.0393 23.5235C5.23872 23.4838 5.44425 23.4026 5.65177 23.3093C5.79074 23.246 5.92977 23.1784 6.07484 23.1148C6.07079 23.1566 6.0668 23.2002 6.05871 23.246C6.03854 23.365 6.00629 23.5038 5.94589 23.6408C5.88749 23.7757 5.79883 23.9084 5.67592 24.0058C5.61547 24.0573 5.54897 24.0911 5.47245 24.1289C5.39581 24.1606 5.3173 24.2003 5.24271 24.2419C5.17223 24.2837 5.10374 24.3293 5.04328 24.3749C4.98283 24.4246 4.93041 24.472 4.88414 24.5217C4.69873 24.7161 4.6585 24.9006 4.6585 24.9006L4.70893 24.9106C4.70893 24.9106 4.7189 24.873 4.7552 24.8113C4.78944 24.7478 4.85189 24.6646 4.9446 24.5794C4.99092 24.5375 5.04534 24.4979 5.10374 24.4563C5.16414 24.4186 5.23063 24.3808 5.30112 24.3471C5.36966 24.3154 5.44425 24.2856 5.52681 24.2577C5.60533 24.226 5.69803 24.1882 5.77256 24.1348C5.92971 24.0297 6.04863 23.879 6.12925 23.728C6.21181 23.5753 6.26019 23.4244 6.29244 23.2935C6.32059 23.1784 6.33671 23.0792 6.34486 23.0038C6.54833 22.9244 6.76389 22.865 6.98553 22.8193C7.23334 22.7737 7.46906 22.744 7.73105 22.7362C7.99293 22.7281 8.25486 22.7201 8.51474 22.7123C8.64169 22.7043 8.84915 22.6885 8.9781 22.6804C9.08077 22.6685 9.18157 22.6586 9.28231 22.6487C9.29462 22.6472 9.30613 22.6451 9.31838 22.6436C9.65581 22.6873 10.1866 22.7237 10.5475 22.5918C10.5475 22.5918 10.3277 22.9768 9.62487 23.1645C9.56852 23.1506 9.50402 23.1328 9.43347 23.117C9.18163 23.0575 8.83913 22.996 8.49457 22.9761C8.40796 22.9682 8.32136 22.97 8.23668 22.97C8.15008 22.9663 8.06751 22.9781 7.98484 22.9821C7.82376 22.9979 7.67464 23.0296 7.54969 23.0674C7.48724 23.0853 7.43282 23.113 7.38445 23.1309C7.33408 23.1487 7.29579 23.1765 7.26365 23.1943C7.19909 23.234 7.16086 23.2578 7.16086 23.2578L7.19112 23.2974C7.19112 23.2974 7.22735 23.2797 7.29185 23.2479C7.3241 23.232 7.36234 23.2082 7.41066 23.1963C7.45903 23.1824 7.5114 23.1607 7.57185 23.1486C7.69475 23.1229 7.83777 23.1049 7.99293 23.1049C8.06945 23.107 8.15008 23.103 8.2327 23.1129C8.31326 23.1188 8.39588 23.1247 8.4785 23.1386C8.694 23.1705 8.90562 23.218 9.09297 23.2695C8.27703 23.4382 7.48923 23.6605 6.913 23.9124C6.59266 24.0513 6.34281 24.2021 6.18167 24.3251C6.10315 24.3887 6.04264 24.4422 6.0064 24.4818C5.96811 24.5215 5.948 24.5434 5.948 24.5434L5.98629 24.5751C5.98629 24.5751 6.0064 24.5571 6.04469 24.5215C6.08298 24.4858 6.14543 24.4402 6.226 24.3866C6.39124 24.2774 6.64309 24.1524 6.96548 24.0414C7.29584 23.9263 7.69681 23.8252 8.13196 23.7418C8.12597 23.7815 8.11583 23.8252 8.1058 23.8727C8.07959 23.9799 8.0454 24.1028 7.99298 24.2299C7.94256 24.3549 7.87407 24.4839 7.78347 24.595C7.74108 24.6486 7.68672 24.6961 7.63025 24.7497C7.5759 24.8013 7.52148 24.8568 7.47316 24.9105C7.37447 25.0196 7.29185 25.1267 7.22735 25.222C7.09642 25.4125 7.03197 25.5534 7.03197 25.5534L7.0763 25.5751C7.0763 25.5751 7.15077 25.4442 7.29185 25.2696C7.36439 25.1824 7.45094 25.085 7.55373 24.9879C7.60615 24.9402 7.65852 24.8926 7.71698 24.8469C7.77339 24.8014 7.83988 24.7517 7.89623 24.6903C8.00911 24.5733 8.09566 24.4363 8.16227 24.3033C8.22865 24.1705 8.27708 24.0415 8.31332 23.9304C8.34358 23.839 8.36369 23.7598 8.37976 23.6963C8.69406 23.6386 9.02248 23.593 9.35291 23.5533C9.3247 23.6208 9.29445 23.6981 9.27234 23.7834C9.25815 23.8312 9.24618 23.8827 9.2361 23.9343C9.22801 23.9859 9.21992 24.0453 9.21792 24.0891L9.20784 24.1663L9.18761 24.224C9.1696 24.2637 9.14733 24.3031 9.11713 24.335C9.05867 24.3984 8.98214 24.4442 8.91365 24.4739C8.84511 24.5038 8.78266 24.5195 8.74038 24.5274C8.69605 24.5373 8.67183 24.5394 8.67183 24.5394L8.67588 24.5891C8.67588 24.5891 8.78471 24.5909 8.93981 24.5413C9.01838 24.5175 9.10704 24.4759 9.18755 24.4045C9.22789 24.3688 9.26208 24.3233 9.29029 24.2736C9.30447 24.2457 9.3145 24.2179 9.32658 24.1881L9.34476 24.1127C9.35484 24.0553 9.36282 24.0135 9.37701 23.9659C9.39108 23.9182 9.40521 23.8727 9.42134 23.8311C9.45353 23.7436 9.49382 23.6683 9.53011 23.6029C9.54624 23.5752 9.56037 23.5514 9.57438 23.5296C9.97136 23.4838 10.3662 23.4502 10.741 23.4242C10.7732 23.4223 10.8074 23.4204 10.8458 23.4142C10.7511 23.6009 10.6302 23.8093 10.4891 24.0076C10.4429 24.0751 10.3924 24.1387 10.34 24.202C10.2916 24.2674 10.2352 24.3231 10.1829 24.3806C10.0761 24.4917 9.96532 24.581 9.86253 24.6504C9.8121 24.6861 9.76179 24.71 9.7174 24.7338C9.67512 24.7614 9.63285 24.7734 9.5986 24.7853C9.53005 24.8092 9.49176 24.8231 9.49176 24.8231L9.50185 24.8728C9.50185 24.8728 9.54419 24.8607 9.61672 24.8429C9.65501 24.833 9.69934 24.8231 9.74772 24.7992C9.79404 24.7774 9.8525 24.7577 9.90885 24.7239C10.0216 24.6604 10.1466 24.5751 10.2695 24.468C10.3279 24.4122 10.3944 24.3607 10.4508 24.2972C10.5092 24.2358 10.5677 24.1743 10.6221 24.1068C10.8376 23.8527 11.021 23.573 11.1519 23.3528L11.2728 23.3113C11.3292 23.2874 11.3817 23.2577 11.434 23.23C11.6133 23.1246 11.7563 22.9897 11.8672 22.851C11.8611 22.8648 11.8571 22.8768 11.8531 22.8887C11.8007 23.0176 11.7342 23.1485 11.6717 23.3054C11.6113 23.454 11.5569 23.6187 11.5265 23.7914C11.4943 23.9601 11.4924 24.1524 11.4863 24.2913C11.4863 24.4024 11.3553 24.4938 11.2204 24.585C11.0834 24.6744 10.9423 24.7637 10.8134 24.8648C10.6864 24.964 10.5696 25.0692 10.4729 25.1823C10.3722 25.2934 10.2956 25.4064 10.2151 25.4997C10.0579 25.6843 9.88868 25.8132 9.75569 25.8408C9.61866 25.8727 9.55017 25.8132 9.55627 25.8172L9.52196 25.8548C9.52396 25.8548 9.54208 25.8727 9.58242 25.8905C9.62265 25.9065 9.68914 25.9183 9.76777 25.9044C9.92891 25.8806 10.1163 25.7537 10.2956 25.5672C10.3843 25.474 10.4709 25.3688 10.5696 25.2714C10.6683 25.1725 10.7832 25.0791 10.9101 24.9938C11.0371 24.9064 11.1761 24.8291 11.3231 24.7477C11.3594 24.7259 11.3957 24.7061 11.432 24.6821C11.434 24.7001 11.434 24.716 11.4379 24.7358C11.4501 24.8152 11.4683 24.9085 11.4985 25.0037C11.5146 25.0533 11.5307 25.1029 11.5508 25.1504C11.5709 25.1982 11.5992 25.2537 11.6194 25.2913L11.6516 25.3629L11.6677 25.4224C11.6738 25.4659 11.6738 25.5096 11.6657 25.5512C11.6516 25.6386 11.6113 25.716 11.571 25.7754C11.5287 25.837 11.4844 25.8827 11.4541 25.9143C11.4219 25.9441 11.4018 25.9599 11.4018 25.9599L11.4321 25.9996C11.4321 25.9996 11.5247 25.944 11.6295 25.8211C11.6818 25.7576 11.7363 25.6763 11.7644 25.5731C11.7786 25.5214 11.7826 25.4658 11.7806 25.4084C11.7765 25.3786 11.7704 25.3489 11.7644 25.319L11.7403 25.2456C11.7161 25.1901 11.702 25.1525 11.6859 25.1029C11.6738 25.0571 11.6617 25.0115 11.6516 24.9659C11.6334 24.8765 11.6235 24.7894 11.6194 24.718C11.6154 24.6446 11.6173 24.5831 11.6194 24.5413C11.6213 24.5314 11.6213 24.5274 11.6213 24.5196C11.6315 24.5076 11.6415 24.4977 11.6516 24.4839C11.6677 24.4641 11.6798 24.4282 11.6919 24.3984C11.708 24.3627 11.704 24.3549 11.71 24.331C11.7322 24.1446 11.7422 24.0056 11.7786 23.8589C11.8692 23.9976 11.9961 24.1604 12.1492 24.3012C12.1814 24.3291 12.2338 24.3788 12.2539 24.4085C12.2822 24.4422 12.3044 24.4858 12.3204 24.5274C12.3547 24.6129 12.3627 24.7019 12.3547 24.7794C12.3486 24.8567 12.3305 24.9203 12.3164 24.9659C12.3002 25.0096 12.2903 25.0313 12.2903 25.0313L12.3325 25.057C12.3325 25.057 12.4031 24.9639 12.4474 24.7952C12.4695 24.7099 12.4796 24.6027 12.4554 24.4898C12.4433 24.4321 12.4252 24.3766 12.3909 24.3192C12.3567 24.2557 12.3305 24.2258 12.2903 24.1722C12.1574 24.0075 12.0606 23.821 12.0002 23.6762C11.9699 23.6049 11.9498 23.5432 11.9358 23.5016C11.9317 23.4837 11.9277 23.4699 11.9236 23.458C11.9297 23.4461 11.9358 23.4322 11.9418 23.4182C12.0042 23.2874 12.0828 23.1524 12.1473 23.0175C12.1593 22.9937 12.169 22.971 12.1802 22.9475C12.3286 22.7915 12.4825 22.6168 12.4807 22.5644C12.4791 22.5188 12.569 22.5978 12.6681 22.698C12.6812 22.7277 12.6938 22.7573 12.7073 22.7875C12.7073 22.7953 12.7054 22.7993 12.7054 22.8092C12.7013 22.8529 12.6933 22.9164 12.6792 22.9937C12.653 23.1466 12.5966 23.3488 12.5019 23.5374C12.4737 23.5969 12.4535 23.6326 12.4334 23.7021C12.4132 23.7655 12.4072 23.823 12.4072 23.8807C12.4072 23.9976 12.4395 24.0991 12.4797 24.1782C12.5583 24.335 12.647 24.4124 12.647 24.4124L12.6852 24.3788C12.6852 24.3788 12.6691 24.3568 12.6449 24.3171C12.6208 24.2774 12.5886 24.218 12.5664 24.1447C12.5443 24.0712 12.5322 23.9799 12.5462 23.8907C12.5543 23.847 12.5664 23.7993 12.5865 23.7617C12.5987 23.7279 12.6409 23.6684 12.6651 23.6326C12.7678 23.4918 12.8484 23.3371 12.9069 23.2001C12.9452 23.2735 12.9855 23.347 13.0197 23.4184C13.0841 23.5554 13.1426 23.6963 13.1789 23.8429C13.2173 23.9977 13.2274 24.1388 13.2494 24.3311C13.2574 24.355 13.2535 24.3628 13.2675 24.3985C13.2797 24.4283 13.2938 24.4642 13.3098 24.484C13.3177 24.4978 13.3279 24.5077 13.3379 24.5197C13.3401 24.5275 13.3401 24.5315 13.3401 24.5415C13.3441 24.5832 13.3441 24.6447 13.342 24.7181C13.3379 24.7895 13.3278 24.8766 13.3098 24.966C13.2997 25.0116 13.2875 25.0572 13.2736 25.103C13.2595 25.1526 13.2453 25.1902 13.2211 25.2457L13.197 25.3192C13.1908 25.349 13.1828 25.3787 13.1807 25.4085C13.1769 25.4659 13.1807 25.5215 13.197 25.5732C13.2252 25.6765 13.2796 25.7577 13.33 25.8212C13.4367 25.9441 13.5294 25.9997 13.5294 25.9997L13.5596 25.96C13.5596 25.96 13.5395 25.9441 13.5073 25.9144C13.477 25.8827 13.4326 25.8372 13.3904 25.7755C13.348 25.7161 13.3077 25.6387 13.2938 25.5513C13.2856 25.5097 13.2875 25.466 13.2938 25.4225L13.3098 25.363L13.342 25.2914C13.3621 25.2538 13.3905 25.1983 13.4084 25.1505C13.4286 25.103 13.4468 25.0534 13.4629 25.0038C13.4931 24.9086 13.5114 24.8153 13.5233 24.7359C13.5253 24.7161 13.5274 24.7002 13.5294 24.6823C13.5656 24.7061 13.602 24.7259 13.6382 24.7478C13.7832 24.8292 13.9223 24.9065 14.0492 24.9939C14.1762 25.0792 14.2931 25.1726 14.3917 25.2715C14.4904 25.3689 14.575 25.4741 14.6656 25.5673C14.845 25.7538 15.0324 25.8807 15.1935 25.9045C15.2721 25.9185 15.3386 25.9066 15.3789 25.8906C15.4192 25.8728 15.4373 25.8549 15.4394 25.8549L15.4051 25.8173C15.411 25.8133 15.3427 25.8728 15.2057 25.8409C15.0707 25.8133 14.9015 25.6844 14.7463 25.4998C14.6657 25.4065 14.5872 25.2935 14.4883 25.1824C14.3917 25.0693 14.2748 24.9641 14.146 24.8649C14.019 24.7638 13.878 24.6745 13.7409 24.5851C13.6059 24.4939 13.4749 24.4025 13.4749 24.2914C13.4689 24.1526 13.467 23.9602 13.4348 23.7915C13.4044 23.6188 13.3502 23.4541 13.2875 23.3055C13.2273 23.1486 13.1586 23.0177 13.1083 22.8888C13.1042 22.8769 13.1004 22.867 13.0963 22.855C13.2071 22.992 13.3501 23.1247 13.5274 23.2301C13.5797 23.2578 13.6322 23.2875 13.6886 23.3114C13.7287 23.3253 13.7712 23.339 13.8115 23.3529C13.9384 23.5732 14.1217 23.8511 14.3393 24.1069C14.3917 24.1744 14.4521 24.2359 14.5107 24.2973C14.567 24.3608 14.6335 24.4124 14.6918 24.4681C14.8128 24.5752 14.9396 24.6604 15.0526 24.724C15.109 24.7578 15.1654 24.7775 15.2136 24.7994C15.2601 24.8232 15.3065 24.8332 15.3427 24.843C15.4173 24.8608 15.4595 24.8729 15.4595 24.8729L15.4696 24.8232C15.4696 24.8232 15.4313 24.8093 15.3628 24.7854C15.3285 24.7735 15.2863 24.7616 15.2439 24.7339C15.1997 24.7101 15.1472 24.6862 15.0968 24.6505C14.996 24.581 14.8854 24.4918 14.7765 24.3807C14.726 24.3233 14.6678 24.2676 14.6194 24.2021C14.569 24.1388 14.5166 24.0752 14.4723 24.0077C14.3312 23.8094 14.2103 23.601 14.1157 23.4143C14.1539 23.4204 14.1862 23.4224 14.2203 23.4244C14.5931 23.4503 14.9899 23.4838 15.3848 23.5297C15.401 23.5515 15.4152 23.5753 15.4312 23.603C15.4674 23.6684 15.5058 23.7438 15.5401 23.8312C15.5561 23.8728 15.5703 23.9184 15.5843 23.966C15.5965 24.0137 15.6065 24.0554 15.6166 24.1128L15.6346 24.1882C15.6468 24.218 15.6569 24.2458 15.6689 24.2737C15.6993 24.3234 15.7334 24.369 15.7738 24.4046C15.8523 24.476 15.943 24.5176 16.0195 24.5415C16.1766 24.591 16.2856 24.5892 16.2856 24.5892L16.2896 24.5395C16.2896 24.5395 16.2633 24.5374 16.221 24.5275C16.1766 24.5197 16.1162 24.5039 16.0478 24.474C15.9792 24.4443 15.9027 24.3985 15.8443 24.3351C15.8141 24.3033 15.7917 24.2638 15.7737 24.2241L15.7536 24.1664L15.7435 24.0892C15.7394 24.0455 15.7334 23.9859 15.7234 23.9344C15.7152 23.8828 15.7032 23.8312 15.6891 23.7835C15.6649 23.6982 15.6367 23.6209 15.6085 23.5534C15.9388 23.5931 16.2673 23.6408 16.5816 23.6964C16.5976 23.7599 16.6178 23.8391 16.646 23.9305C16.6823 24.0416 16.7307 24.1706 16.7992 24.3034C16.8656 24.4364 16.9522 24.5733 17.0652 24.6904C17.1216 24.7518 17.1881 24.8015 17.2444 24.847C17.3029 24.8926 17.3552 24.9403 17.4076 24.988C17.5083 25.0852 17.5969 25.1825 17.6674 25.2698C17.8107 25.4443 17.885 25.5752 17.885 25.5752L17.9294 25.5535C17.9294 25.5535 17.8649 25.4126 17.7341 25.2221C17.6674 25.1268 17.587 25.0197 17.4882 24.9106C17.4399 24.8569 17.3855 24.8014 17.3291 24.7498C17.2727 24.6963 17.2203 24.6488 17.1758 24.5951C17.0873 24.484 17.0187 24.3551 16.9664 24.2301C16.9159 24.1029 16.8797 23.98 16.8555 23.8729C16.8435 23.8253 16.8354 23.7816 16.8294 23.7419C17.2646 23.8253 17.6636 23.9264 17.9959 24.0415C18.3162 24.1526 18.57 24.2776 18.7335 24.3867C18.8159 24.4403 18.8784 24.4859 18.9146 24.5216C18.9549 24.5572 18.975 24.5752 18.975 24.5752L19.0115 24.5435C19.0115 24.5435 18.9933 24.5216 18.9549 24.4819C18.9187 24.4423 18.8582 24.3888 18.7776 24.3252C18.6186 24.2022 18.3666 24.0515 18.0483 23.9125C17.47 23.6606 16.6845 23.4383 15.8685 23.2696C16.0557 23.2181 16.2673 23.1706 16.4829 23.1387C16.5654 23.1248 16.6481 23.1189 16.7286 23.113C16.8111 23.1031 16.8898 23.1071 16.9684 23.105C17.1236 23.105 17.2666 23.123 17.3875 23.1487C17.448 23.1608 17.5003 23.1825 17.5487 23.1964C17.5991 23.2083 17.6373 23.2321 17.6696 23.248C17.7341 23.2799 17.7703 23.2976 17.7703 23.2976L17.7984 23.258C17.7984 23.258 17.7622 23.2341 17.6976 23.1944C17.6655 23.1766 17.6271 23.1488 17.5768 23.131C17.5285 23.1131 17.474 23.0855 17.4116 23.0675C17.2866 23.0297 17.1377 22.998 16.9745 22.9822C16.8939 22.9783 16.8092 22.9664 16.7245 22.9701C16.6401 22.9701 16.5535 22.9683 16.4666 22.9762C16.1202 22.9961 15.7797 23.0576 15.5278 23.1171C15.4675 23.1307 15.4127 23.1442 15.3625 23.1579C14.6777 22.9679 14.4607 22.5919 14.4607 22.5919C14.8127 22.7206 15.3272 22.689 15.6653 22.647C15.67 22.6475 15.6742 22.6483 15.6789 22.6488C15.804 22.6607 15.9308 22.6746 16.0597 22.6885C16.1867 22.6965 16.3176 22.7043 16.4486 22.7124C16.7065 22.7202 16.9683 22.7282 17.2303 22.7362C17.4923 22.744 17.7279 22.7738 17.9757 22.8194C18.1974 22.865 18.4128 22.9267 18.6165 23.006C18.6244 23.0814 18.6386 23.1785 18.6667 23.2935C18.701 23.4245 18.7494 23.5754 18.8301 23.7281C18.9127 23.879 19.0315 24.0297 19.1867 24.1348C19.2632 24.1883 19.3558 24.2261 19.4345 24.2578C19.517 24.2856 19.5916 24.3154 19.6601 24.3471C19.7306 24.3809 19.7971 24.4187 19.8575 24.4563C19.916 24.4979 19.9705 24.5375 20.0168 24.5794C20.1074 24.6647 20.1698 24.7479 20.2061 24.8114C20.2423 24.8731 20.2524 24.9106 20.2524 24.9106L20.3008 24.9007C20.3008 24.9007 20.2625 24.7161 20.0772 24.5217C20.0309 24.4721 19.9765 24.4246 19.9179 24.3749C19.8575 24.3294 19.7891 24.2837 19.7166 24.242C19.642 24.2004 19.5654 24.1607 19.4889 24.129C19.4124 24.0912 19.3456 24.0574 19.2833 24.0059C19.1624 23.9085 19.0738 23.7758 19.0134 23.6408C18.9549 23.5038 18.9207 23.365 18.9026 23.246C18.8944 23.1983 18.8884 23.1546 18.8864 23.1149C19.0314 23.1784 19.1705 23.246 19.3095 23.3093C19.5169 23.4027 19.7226 23.4839 19.92 23.5236C20.1175 23.5714 20.3048 23.5832 20.4659 23.5812C20.6293 23.5871 20.7681 23.5614 20.883 23.5555C21.1107 23.5158 21.2396 23.492 21.2396 23.492L21.2315 23.4442C21.2315 23.4442 21.1026 23.4563 20.875 23.478C20.7622 23.474 20.6252 23.49 20.4699 23.4722C20.315 23.4603 20.1415 23.4365 19.9604 23.3769C19.7789 23.3254 19.5957 23.2361 19.4023 23.1289C19.2087 23.0237 19.0052 22.8987 18.7797 22.7917C18.5539 22.6786 18.3082 22.5852 18.0523 22.512C17.8006 22.4425 17.5184 22.3888 17.2586 22.3591C17.0005 22.3312 16.7424 22.3036 16.4861 22.2757C16.3688 22.2582 16.1767 22.2296 16.0591 22.212C15.9585 22.1935 15.8591 22.1758 15.7595 22.1569C15.6446 22.1331 15.5299 22.1073 15.419 22.0794C15.0846 21.9723 14.8047 21.6151 14.581 21.1945C14.5647 21.1589 14.5507 21.1232 14.5348 21.0875C14.1311 20.1927 13.7889 19.2083 13.878 18.2149C13.922 17.727 14.0708 17.198 14.3642 16.7952C14.6513 16.4007 15.0866 16.1332 15.3563 15.7216C16.0396 15.9491 16.733 16.1786 17.4531 16.2198C18.1732 16.2611 18.9357 16.0916 19.4654 15.6095C19.846 15.2636 20.0833 14.7822 20.4347 14.4137C20.5291 14.4759 20.6426 14.5479 20.7756 14.6253C21.1608 14.8497 21.7009 15.117 22.2911 15.2554C22.3634 15.276 22.4395 15.2858 22.5129 15.3008C22.5824 15.3142 22.6511 15.3273 22.7195 15.3403C22.7928 15.3522 22.8508 15.371 22.9112 15.3879C22.9718 15.4024 23.0317 15.4268 23.0908 15.4491C23.209 15.4937 23.3175 15.5508 23.4169 15.6105C23.5157 15.6714 23.6031 15.7382 23.6803 15.8048C23.8327 15.9397 23.938 16.0757 24.0031 16.1746C24.0363 16.2241 24.0583 16.2647 24.0733 16.2921C24.0862 16.3186 24.0934 16.3328 24.0934 16.3328L24.2354 16.2822C24.2354 16.2822 24.2284 16.2637 24.2152 16.2288C24.2015 16.1961 24.1809 16.1486 24.15 16.091L24.1501 16.0911Z" fill="#009444"/>
<path d="M21.2397 7.89006C23.0712 7.92058 23.1437 6.02472 23.1437 6.02472C23.1437 6.02472 21.2188 6.08649 21.2397 7.89006Z" fill="#009444"/>
<path d="M16.5859 6.6315C16.5859 6.6315 15.5141 8.20734 17.0137 9.24256C18.1073 7.79542 16.5859 6.6315 16.5859 6.6315Z" fill="#009444"/>
<path d="M15.1843 5.04008C15.1843 5.04008 15.8383 6.82398 17.5736 6.24779C17.0377 4.52258 15.1843 5.04008 15.1843 5.04008Z" fill="#009444"/>
<path d="M15.6824 6.30009C15.6824 6.30009 13.8388 5.75151 13.272 7.46637C14.9972 8.07336 15.6824 6.30009 15.6824 6.30009Z" fill="#009444"/>
<path d="M14.7727 4.48667C14.7727 4.48667 12.8486 4.3998 12.7261 6.19933C14.5496 6.37127 14.7727 4.48667 14.7727 4.48667Z" fill="#009444"/>
<path d="M20.7128 7.04101C20.7128 7.04101 18.869 6.49243 18.3025 8.20711C20.0274 8.81411 20.7128 7.04101 20.7128 7.04101Z" fill="#009444"/>
<path d="M20.1474 12.732C20.1474 12.732 19.3566 11.0024 17.6714 11.7078C18.3397 13.3876 20.1474 12.732 20.1474 12.732Z" fill="#009444"/>
<path d="M20.3787 9.5899C20.3787 9.5899 19.5554 8.3091 18.3025 9.05403C19.023 10.3091 20.3787 9.5899 20.3787 9.5899Z" fill="#009444"/>
<path d="M16.2148 12.956C16.9356 14.2111 18.2913 13.4918 18.2913 13.4918C18.2913 13.4918 17.4679 12.211 16.2148 12.956Z" fill="#009444"/>
<path d="M14.9131 9.75876C14.9131 9.75876 13.2955 9.91849 13.4172 11.4361C14.9615 11.3595 14.9131 9.75876 14.9131 9.75876Z" fill="#009444"/>
<path d="M16.0059 9.8738C16.1729 8.73766 14.9634 8.54013 14.9634 8.54013C14.9634 8.54013 14.8481 9.7418 16.0059 9.8738Z" fill="#009444"/>
<path d="M14.0349 8.27835C14.0349 8.27835 12.8409 8.55127 13.0803 9.67442C14.2277 9.47061 14.0349 8.27835 14.0349 8.27835Z" fill="#009444"/>
<path d="M20.8713 13.21C22.0187 13.0062 21.8259 11.8139 21.8259 11.8139C21.8259 11.8139 20.6319 12.0868 20.8713 13.21Z" fill="#009444"/>
<path d="M18.9621 13.9081C18.9621 13.9081 17.7683 14.1811 18.0078 15.3043C19.155 15.1005 18.9621 13.9081 18.9621 13.9081Z" fill="#009444"/>
<path d="M22.9746 8.63264C24.3514 8.388 24.1201 6.95721 24.1201 6.95721C24.1201 6.95721 22.6873 7.28491 22.9746 8.63264Z" fill="#009444"/>
<path d="M19.7437 15.6397C20.3364 16.8877 21.6818 16.3009 21.6818 16.3009C21.6818 16.3009 20.9931 15.0209 19.7437 15.6397Z" fill="#009444"/>
<path d="M22.1818 15.5825C21.4362 16.7482 22.6649 17.5455 22.6649 17.5455C22.6649 17.5455 23.3859 16.283 22.1818 15.5825Z" fill="#009444"/>
<path d="M21.8259 4.17657C21.8259 4.17657 20.6319 4.44966 20.8713 5.57281C22.0187 5.369 21.8259 4.17657 21.8259 4.17657Z" fill="#009444"/>
<path d="M22.1992 14.7505C23.1069 14.8923 23.2779 13.9555 23.2779 13.9555C23.2779 13.9555 22.3173 13.8533 22.1992 14.7505Z" fill="#009444"/>
<path d="M22.3972 13.2498C23.3048 13.3916 23.4759 12.4549 23.4759 12.4549C23.4759 12.4549 22.5152 12.3526 22.3972 13.2498Z" fill="#009444"/>
<path d="M13.6649 12.519C13.6649 12.519 13.4907 13.7139 14.6405 13.901C14.8632 12.7741 13.6649 12.519 13.6649 12.519Z" fill="#009444"/>
<path d="M4.32681 7.56389C4.34778 5.76066 2.42285 5.69861 2.42285 5.69861C2.42285 5.69861 2.49516 7.59458 4.32681 7.56389Z" fill="#009444"/>
<path d="M8.30261 9.24256C9.80213 8.2074 8.73024 6.6315 8.73024 6.6315C8.73024 6.6315 7.20872 7.79536 8.30261 9.24256Z" fill="#009444"/>
<path d="M10.1319 5.04006C10.1319 5.04006 8.27845 4.52251 7.74268 6.24778C9.47798 6.82402 10.1319 5.04006 10.1319 5.04006Z" fill="#009444"/>
<path d="M9.63403 6.30011C9.63403 6.30011 10.3193 8.07343 12.0444 7.46638C11.4777 5.75147 9.63403 6.30011 9.63403 6.30011Z" fill="#009444"/>
<path d="M10.6467 4.68953C10.6467 4.68953 10.7824 5.83581 11.8916 5.73124C11.8171 4.63666 10.6467 4.68953 10.6467 4.68953Z" fill="#009444"/>
<path d="M7.01421 8.20716C6.44744 6.49242 4.60376 7.04106 4.60376 7.04106C4.60376 7.04106 5.28905 8.81421 7.01421 8.20716Z" fill="#009444"/>
<path d="M5.16919 12.7319C5.16919 12.7319 6.97703 13.3876 7.64528 11.7078C5.95989 11.0023 5.16919 12.7319 5.16919 12.7319Z" fill="#009444"/>
<path d="M7.21548 9.05403C5.96245 8.30903 5.13916 9.58989 5.13916 9.58989C5.13916 9.58989 6.4947 10.3091 7.21548 9.05403Z" fill="#009444"/>
<path d="M9.10147 12.956C7.84844 12.211 7.02515 13.4918 7.02515 13.4918C7.02515 13.4918 8.38068 14.2111 9.10147 12.956Z" fill="#009444"/>
<path d="M10.0881 9.5769C10.0881 9.5769 10.0396 11.1777 11.5841 11.2542C11.7057 9.73663 10.0881 9.5769 10.0881 9.5769Z" fill="#009444"/>
<path d="M10.3531 8.54013C10.3531 8.54013 9.14345 8.73772 9.31052 9.8738C10.4683 9.7418 10.3531 8.54013 10.3531 8.54013Z" fill="#009444"/>
<path d="M10.7822 7.83405C10.7822 7.83405 10.5895 9.02636 11.7367 9.23039C11.9762 8.10696 10.7822 7.83405 10.7822 7.83405Z" fill="#009444"/>
<path d="M4.44494 13.21C4.68437 12.0868 3.49048 11.8139 3.49048 11.8139C3.49048 11.8139 3.29761 13.0062 4.44494 13.21Z" fill="#009444"/>
<path d="M6.35399 13.9081C6.35399 13.9081 6.16123 15.1005 7.30856 15.3043C7.54799 14.1811 6.35399 13.9081 6.35399 13.9081Z" fill="#009444"/>
<path d="M2.34173 8.63264C2.62902 7.28491 1.19628 6.95721 1.19628 6.95721C1.19628 6.95721 0.96494 8.38795 2.34173 8.63264Z" fill="#009444"/>
<path d="M11.4003 1.67349C11.6753 0.38328 10.3746 0.0280336 10.2627 3.05176e-05H10.2546C10.2462 0.0555326 10.0512 1.43401 11.4003 1.67349Z" fill="#009444"/>
<path d="M5.5728 15.6397C4.3233 15.0209 3.63477 16.3009 3.63477 16.3009C3.63477 16.3009 4.97999 16.8877 5.5728 15.6397Z" fill="#009444"/>
<path d="M2.65169 17.5455C2.65169 17.5455 3.88028 16.7482 3.13465 15.5825C1.93056 16.2829 2.65169 17.5455 2.65169 17.5455Z" fill="#009444"/>
<path d="M4.10226 5.57281C4.34175 4.44966 3.14769 4.17657 3.14769 4.17657C3.14769 4.17657 2.95493 5.369 4.10226 5.57281Z" fill="#009444"/>
<path d="M5.29367 4.56134C5.5331 3.43814 4.3391 3.16522 4.3391 3.16522C4.3391 3.16522 4.14634 4.35765 5.29367 4.56134Z" fill="#009444"/>
<path d="M7.81771 1.48599C7.81771 1.48599 6.79504 2.41721 7.67389 3.39266C8.68892 2.55554 7.81771 1.48599 7.81771 1.48599Z" fill="#009444"/>
<path d="M9.28602 0.4021C9.28602 0.4021 8.26324 1.33326 9.1422 2.30888C10.1571 1.47182 9.28602 0.4021 9.28602 0.4021Z" fill="#009444"/>
<path d="M3.11712 14.7505C2.99906 13.8532 2.03833 13.9555 2.03833 13.9555C2.03833 13.9555 2.20932 14.8923 3.11712 14.7505Z" fill="#009444"/>
<path d="M1.84058 12.4549C1.84058 12.4549 2.01157 13.3916 2.91936 13.2498C2.80136 12.3526 1.84058 12.4549 1.84058 12.4549Z" fill="#009444"/>
<path d="M10.7596 13.6969C11.8576 13.3868 11.5511 12.243 11.5511 12.243C11.5511 12.243 10.4136 12.6245 10.7596 13.6969Z" fill="#009444"/>
<path d="M17.8508 5.04731C18.4591 3.34579 16.6552 2.67926 16.6552 2.67926C16.6552 2.67926 16.1068 4.49733 17.8508 5.04731Z" fill="#009444"/>
<path d="M20.1472 3.12344C20.1472 3.12344 18.2254 3.24565 18.3046 5.04731C20.1364 5.02065 20.1472 3.12344 20.1472 3.12344Z" fill="#009444"/>
<path d="M18.4521 5.4549C19.2627 7.0727 21.0076 6.26839 21.0076 6.26839C21.0076 6.26839 20.0706 4.61128 18.4521 5.4549Z" fill="#009444"/>
<path d="M22.2849 10.9004C22.893 9.19869 21.0894 8.5321 21.0894 8.5321C21.0894 8.5321 20.5408 10.3503 22.2849 10.9004Z" fill="#009444"/>
<path d="M22.739 10.9004C24.5706 10.8736 24.5816 8.97641 24.5816 8.97641C24.5816 8.97641 22.6596 9.09873 22.739 10.9004Z" fill="#009444"/>
<path d="M22.8865 11.3078C23.6972 12.9257 25.4418 12.1215 25.4418 12.1215C25.4418 12.1215 24.5053 10.4643 22.8865 11.3078Z" fill="#009444"/>
<path d="M25.3777 12.3182C25.3777 12.3182 24.3241 12.4094 24.3907 13.3976C25.3959 13.36 25.3777 12.3182 25.3777 12.3182Z" fill="#009444"/>
<path d="M24.4822 13.6258C24.8655 14.5417 25.852 14.1645 25.852 14.1645C25.852 14.1645 25.4007 13.2224 24.4822 13.6258Z" fill="#009444"/>
<path d="M24.3009 13.7822C23.6254 14.5165 24.3946 15.2317 24.3946 15.2317C24.3946 15.2317 25.0649 14.4261 24.3009 13.7822Z" fill="#009444"/>
<path d="M26.1592 14.9592C26.1543 14.9582 24.6111 14.6151 24.2461 16.0549C25.6923 16.4536 26.1544 14.975 26.1592 14.9596V14.9592Z" fill="#009444"/>
<path d="M24.2708 16.4224C24.3919 17.9043 25.9766 17.811 25.9766 17.811C25.9766 17.811 25.7711 16.2611 24.2708 16.4224Z" fill="#009444"/>
<path d="M23.3966 18.6769C23.3966 18.6769 24.7299 17.8292 23.9383 16.5638C22.6311 17.3073 23.3966 18.6769 23.3966 18.6769Z" fill="#009444"/>
<path d="M7.75967 5.06321C9.58289 4.89429 9.44312 3.00269 9.44312 3.00269C9.44312 3.00269 7.53619 3.27263 7.75967 5.06321Z" fill="#009444"/>
<path d="M7.31618 4.96744C7.78604 3.22425 5.93541 2.69891 5.93541 2.69891C5.93541 2.69891 5.53296 4.55423 7.31618 4.96744Z" fill="#009444"/>
<path d="M4.4104 5.58906C4.4104 5.58906 5.93949 6.74323 7.08347 5.33412C5.68628 4.1684 4.4104 5.58906 4.4104 5.58906Z" fill="#009444"/>
<path d="M15.5416 3.07531C15.5416 3.07531 13.745 2.39024 13.0486 4.05883C14.722 4.79162 15.5416 3.07531 15.5416 3.07531Z" fill="#009444"/>
<path d="M12.71 3.76119C13.9871 2.46873 12.6354 1.11758 12.6354 1.11758C12.6354 1.11758 11.3612 2.54053 12.71 3.76119Z" fill="#009444"/>
<path d="M12.3243 3.96863C11.6867 2.27814 9.86743 2.90054 9.86743 2.90054C9.86743 2.90054 10.6259 4.64468 12.3243 3.96863Z" fill="#009444"/>
<path d="M3.22874 11.0414C5.0045 10.6006 4.57339 8.75195 4.57339 8.75195C4.57339 8.75195 2.73063 9.30541 3.22874 11.0414Z" fill="#009444"/>
<path d="M2.77568 11.0132C2.96992 9.2201 1.05963 8.97888 1.05963 8.97888C1.05963 8.97888 0.949264 10.8729 2.77568 11.0132Z" fill="#009444"/>
<path d="M2.60241 11.4109C1.04095 10.4686 0 12.0643 0 12.0643C0 12.0643 1.69006 12.9752 2.60241 11.4109Z" fill="#009444"/>
</g>
<defs>
<clipPath id="clip0_38_598">
<rect width="99" height="26" fill="white"/>
</clipPath>
</defs>
</svg>
